<?xml version="1.0" encoding="utf-8"?>
<!-- Generator: Adobe Illustrator 25.3.1, SVG Export Plug-In . SVG Version: 6.00 Build 0)  -->
<svg version="1.1" id="Capa_1" xmlns="http://www.w3.org/2000/svg" xmlns:xlink="http://www.w3.org/1999/xlink" x="0px" y="0px"
	 viewBox="0 0 84 14.7" style="enable-background:new 0 0 84 14.7;" xml:space="preserve">
<style type="text/css">
	.st0{opacity:0.557;fill-rule:evenodd;clip-rule:evenodd;fill:#48DFCA;enable-background:new    ;}
	.st1{fill:#48DFCA;}
</style>
<g id="Grupo_242" transform="translate(0)">
	<g id="Componente_22_260" transform="translate(0 0)">
		<path id="Trazado_52" class="st0" d="M10.1,4.8L7.7,0.4c0,0-0.1-0.1-0.1,0c0,0,0,0,0,0L5.3,4.7L0.4,5.6c-0.1,0-0.1,0.1-0.1,0.1
			c0,0,0,0,0,0.1l3.4,3.5l-0.6,4.9c0,0.1,0,0.1,0.1,0.1c0,0,0.1,0,0.1,0l4.3-2.1l4.5,2.1c0.1,0,0.1,0,0.1-0.1c0,0,0,0,0,0l-0.7-4.8
			l3.4-3.6c0.1-0.1,0.1-0.2,0-0.2L10.1,4.8z"/>
		<g id="Grupo_56">
			<g id="Grupo_55">
				<path id="Trazado_53" class="st1" d="M12.1,14.7c-0.1,0-0.1,0-0.2,0l-4.3-2.1l-4.2,2c-0.2,0.1-0.5,0-0.6-0.2
					c0-0.1-0.1-0.2,0-0.3l0.6-4.7L0.1,6C0,5.9,0,5.7,0,5.6c0.1-0.2,0.2-0.3,0.4-0.3L1.5,5c0.2,0,0.4,0.1,0.4,0.3
					c0,0.2-0.1,0.4-0.3,0.4c0,0,0,0,0,0L1,5.9L4,9c0.1,0.1,0.1,0.2,0.1,0.3l-0.6,4.4l3.9-1.9c0.1,0,0.2,0,0.3,0l4,1.9l-0.6-4.3
					c0-0.1,0-0.2,0.1-0.3l3.1-3.2l-4.3-0.8C10,5.1,9.9,5,9.8,4.9L7.7,1L5.6,4.9C5.6,5,5.5,5,5.4,5.1L4.2,5.3C4,5.3,3.8,5.2,3.8,5
					c0-0.2,0.1-0.4,0.3-0.4l1-0.2l2.2-4.2C7.4,0.1,7.5,0,7.7,0l0,0C7.8,0,8,0.1,8.1,0.2l2.3,4.2L15,5.2c0.2,0,0.3,0.2,0.4,0.3
					c0,0.2,0,0.4-0.1,0.5l-3.3,3.4l0.7,4.7c0,0.2,0,0.3-0.2,0.4C12.3,14.6,12.2,14.7,12.1,14.7z M3.5,14.2L3.5,14.2z"/>
			</g>
			<path id="Trazado_54" class="st1" d="M2.9,5.5c0.2,0,0.3-0.2,0.3-0.4c0-0.2-0.2-0.3-0.3-0.3l0,0C2.7,4.8,2.5,5,2.5,5.2
				C2.5,5.4,2.7,5.5,2.9,5.5z"/>
		</g>
	</g>
	<g id="Componente_22_261" transform="translate(17.172 0)">
		<path id="Trazado_52-2" class="st0" d="M10.1,4.8L7.7,0.4c0,0-0.1-0.1-0.1,0c0,0,0,0,0,0L5.3,4.7L0.4,5.6c-0.1,0-0.1,0.1-0.1,0.1
			c0,0,0,0,0,0.1l3.4,3.5l-0.6,4.9c0,0.1,0,0.1,0.1,0.1c0,0,0.1,0,0.1,0l4.3-2.1l4.5,2.1c0.1,0,0.1,0,0.1-0.1c0,0,0,0,0,0l-0.7-4.8
			l3.4-3.6c0.1-0.1,0.1-0.2,0-0.2L10.1,4.8z"/>
		<g id="Grupo_56-2">
			<g id="Grupo_55-2">
				<path id="Trazado_53-2" class="st1" d="M12.1,14.7c-0.1,0-0.1,0-0.2,0l-4.3-2.1l-4.2,2c-0.2,0.1-0.5,0-0.6-0.2
					c0-0.1-0.1-0.2,0-0.3l0.6-4.7L0.1,6C0,5.9,0,5.7,0,5.6c0.1-0.2,0.2-0.3,0.4-0.3L1.5,5c0.2,0,0.4,0.1,0.4,0.3
					c0,0.2-0.1,0.4-0.3,0.4c0,0,0,0,0,0L1,5.9L4,9c0.1,0.1,0.1,0.2,0.1,0.3l-0.6,4.4l3.9-1.9c0.1,0,0.2,0,0.3,0l4,1.9l-0.6-4.3
					c0-0.1,0-0.2,0.1-0.3l3.1-3.2l-4.3-0.8C10,5.1,9.9,5,9.8,4.9L7.7,1L5.6,4.9C5.6,5,5.5,5,5.4,5.1L4.2,5.3C4,5.3,3.8,5.2,3.8,5
					c0-0.2,0.1-0.4,0.3-0.4l1-0.2l2.2-4.2C7.4,0.1,7.5,0,7.7,0l0,0C7.8,0,8,0.1,8.1,0.2l2.3,4.2L15,5.2c0.2,0,0.3,0.2,0.4,0.3
					c0,0.2,0,0.4-0.1,0.5l-3.3,3.4l0.7,4.7c0,0.2,0,0.3-0.2,0.4C12.3,14.6,12.2,14.7,12.1,14.7z M3.5,14.2L3.5,14.2z"/>
			</g>
			<path id="Trazado_54-2" class="st1" d="M2.9,5.5c0.2,0,0.3-0.2,0.3-0.4c0-0.2-0.2-0.3-0.3-0.3l0,0C2.7,4.8,2.5,5,2.5,5.2
				C2.5,5.4,2.7,5.5,2.9,5.5z"/>
		</g>
	</g>
	<g id="Componente_22_262" transform="translate(34.344 0)">
		<path id="Trazado_52-3" class="st0" d="M10.1,4.8L7.7,0.4c0,0-0.1-0.1-0.1,0c0,0,0,0,0,0L5.3,4.7L0.4,5.6c-0.1,0-0.1,0.1-0.1,0.1
			c0,0,0,0,0,0.1l3.4,3.5l-0.6,4.9c0,0.1,0,0.1,0.1,0.1c0,0,0.1,0,0.1,0l4.3-2.1l4.5,2.1c0.1,0,0.1,0,0.1-0.1c0,0,0,0,0,0l-0.7-4.8
			l3.4-3.6c0.1-0.1,0.1-0.2,0-0.2L10.1,4.8z"/>
		<g id="Grupo_56-3">
			<g id="Grupo_55-3">
				<path id="Trazado_53-3" class="st1" d="M12.1,14.7c-0.1,0-0.1,0-0.2,0l-4.3-2.1l-4.2,2c-0.2,0.1-0.5,0-0.6-0.2
					c0-0.1-0.1-0.2,0-0.3l0.6-4.7L0.1,6C0,5.9,0,5.7,0,5.6c0.1-0.2,0.2-0.3,0.4-0.3L1.5,5c0.2,0,0.4,0.1,0.4,0.3
					c0,0.2-0.1,0.4-0.3,0.4c0,0,0,0,0,0L1,5.9L4,9c0.1,0.1,0.1,0.2,0.1,0.3l-0.6,4.4l3.9-1.9c0.1,0,0.2,0,0.3,0l4,1.9l-0.6-4.3
					c0-0.1,0-0.2,0.1-0.3l3.1-3.2l-4.3-0.8C10,5.1,9.9,5,9.8,4.9L7.7,1L5.6,4.9C5.6,5,5.5,5,5.4,5.1L4.2,5.3C4,5.3,3.8,5.2,3.8,5
					c0-0.2,0.1-0.4,0.3-0.4l1-0.2l2.2-4.2C7.4,0.1,7.5,0,7.7,0l0,0C7.8,0,8,0.1,8.1,0.2l2.3,4.2L15,5.2c0.2,0,0.3,0.2,0.4,0.3
					c0,0.2,0,0.4-0.1,0.5l-3.3,3.4l0.7,4.7c0,0.2,0,0.3-0.2,0.4C12.3,14.6,12.2,14.7,12.1,14.7z M3.5,14.2L3.5,14.2z"/>
			</g>
			<path id="Trazado_54-3" class="st1" d="M2.9,5.5c0.2,0,0.3-0.2,0.3-0.4c0-0.2-0.2-0.3-0.3-0.3l0,0C2.7,4.8,2.5,5,2.5,5.2
				C2.5,5.4,2.7,5.5,2.9,5.5z"/>
		</g>
	</g>
	<g id="Componente_22_263" transform="translate(51.516 0)">
		<path id="Trazado_52-4" class="st0" d="M10.1,4.8L7.7,0.4c0,0-0.1-0.1-0.1,0c0,0,0,0,0,0L5.3,4.7L0.4,5.6c-0.1,0-0.1,0.1-0.1,0.1
			c0,0,0,0,0,0.1l3.4,3.5l-0.6,4.9c0,0.1,0,0.1,0.1,0.1c0,0,0.1,0,0.1,0l4.3-2.1l4.5,2.1c0.1,0,0.1,0,0.1-0.1c0,0,0,0,0,0l-0.7-4.8
			l3.4-3.6c0.1-0.1,0.1-0.2,0-0.2L10.1,4.8z"/>
		<g id="Grupo_56-4">
			<g id="Grupo_55-4">
				<path id="Trazado_53-4" class="st1" d="M12.1,14.7c-0.1,0-0.1,0-0.2,0l-4.3-2.1l-4.2,2c-0.2,0.1-0.5,0-0.6-0.2
					c0-0.1-0.1-0.2,0-0.3l0.6-4.7L0.1,6C0,5.9,0,5.7,0,5.6c0.1-0.2,0.2-0.3,0.4-0.3L1.5,5c0.2,0,0.4,0.1,0.4,0.3
					c0,0.2-0.1,0.4-0.3,0.4c0,0,0,0,0,0L1,5.9L4,9c0.1,0.1,0.1,0.2,0.1,0.3l-0.6,4.4l3.9-1.9c0.1,0,0.2,0,0.3,0l4,1.9l-0.6-4.3
					c0-0.1,0-0.2,0.1-0.3l3.1-3.2l-4.3-0.8C10,5.1,9.9,5,9.8,4.9L7.7,1L5.6,4.9C5.6,5,5.5,5,5.4,5.1L4.2,5.3C4,5.3,3.8,5.2,3.8,5
					c0-0.2,0.1-0.4,0.3-0.4l1-0.2l2.2-4.2C7.4,0.1,7.5,0,7.7,0l0,0C7.8,0,8,0.1,8.1,0.2l2.3,4.2L15,5.2c0.2,0,0.3,0.2,0.4,0.3
					c0,0.2,0,0.4-0.1,0.5l-3.3,3.4l0.7,4.7c0,0.2,0,0.3-0.2,0.4C12.3,14.6,12.2,14.7,12.1,14.7z M3.5,14.2L3.5,14.2z"/>
			</g>
			<path id="Trazado_54-4" class="st1" d="M2.9,5.5c0.2,0,0.3-0.2,0.3-0.4c0-0.2-0.2-0.3-0.3-0.3l0,0C2.7,4.8,2.5,5,2.5,5.2
				C2.5,5.4,2.7,5.5,2.9,5.5z"/>
		</g>
	</g>
	<g id="Componente_22_264" transform="translate(68.688 0)">
		<path id="Trazado_52-5" class="st0" d="M10.1,4.8L7.7,0.4c0,0-0.1-0.1-0.1,0c0,0,0,0,0,0L5.3,4.7L0.4,5.6c-0.1,0-0.1,0.1-0.1,0.1
			c0,0,0,0,0,0.1l3.4,3.5l-0.6,4.9c0,0.1,0,0.1,0.1,0.1c0,0,0.1,0,0.1,0l4.3-2.1l4.5,2.1c0.1,0,0.1,0,0.1-0.1c0,0,0,0,0,0l-0.7-4.8
			l3.4-3.6c0.1-0.1,0.1-0.2,0-0.2L10.1,4.8z"/>
		<g id="Grupo_56-5">
			<g id="Grupo_55-5">
				<path id="Trazado_53-5" class="st1" d="M12.1,14.7c-0.1,0-0.1,0-0.2,0l-4.3-2.1l-4.2,2c-0.2,0.1-0.5,0-0.6-0.2
					c0-0.1-0.1-0.2,0-0.3l0.6-4.7L0.1,6C0,5.9,0,5.7,0,5.6c0.1-0.2,0.2-0.3,0.4-0.3L1.5,5c0.2,0,0.4,0.1,0.4,0.3
					c0,0.2-0.1,0.4-0.3,0.4c0,0,0,0,0,0L1,5.9L4,9c0.1,0.1,0.1,0.2,0.1,0.3l-0.6,4.4l3.9-1.9c0.1,0,0.2,0,0.3,0l4,1.9l-0.6-4.3
					c0-0.1,0-0.2,0.1-0.3l3.1-3.2l-4.3-0.8C10,5.1,9.9,5,9.8,4.9L7.7,1L5.6,4.9C5.6,5,5.5,5,5.4,5.1L4.2,5.3C4,5.3,3.8,5.2,3.8,5
					c0-0.2,0.1-0.4,0.3-0.4l1-0.2l2.2-4.2C7.4,0.1,7.5,0,7.7,0l0,0C7.8,0,8,0.1,8.1,0.2l2.3,4.2L15,5.2c0.2,0,0.3,0.2,0.4,0.3
					c0,0.2,0,0.4-0.1,0.5l-3.3,3.4l0.7,4.7c0,0.2,0,0.3-0.2,0.4C12.3,14.6,12.2,14.7,12.1,14.7z M3.5,14.2L3.5,14.2z"/>
			</g>
			<path id="Trazado_54-5" class="st1" d="M2.9,5.5c0.2,0,0.3-0.2,0.3-0.4c0-0.2-0.2-0.3-0.3-0.3l0,0C2.7,4.8,2.5,5,2.5,5.2
				C2.5,5.4,2.7,5.5,2.9,5.5z"/>
		</g>
	</g>
</g>
</svg>
