<?xml version="1.0" encoding="utf-8"?>
<!-- Generator: Adobe Illustrator 25.3.1, SVG Export Plug-In . SVG Version: 6.00 Build 0)  -->
<svg version="1.1" id="Capa_1" xmlns="http://www.w3.org/2000/svg" xmlns:xlink="http://www.w3.org/1999/xlink" x="0px" y="0px"
	 viewBox="0 0 99.4 99.7" style="enable-background:new 0 0 99.4 99.7;" xml:space="preserve">
<style type="text/css">
	.st0{fill:#F8DFE1;}
	.st1{fill:#CB959F;}
	.st2{fill:#FFFFFF;}
</style>
<g id="Grupo_37" transform="translate(16124.516 4265.221)">
	<g id="Elipse_1" transform="translate(-16118.431 -4265.221)">
		<g>
			<ellipse class="st0" cx="46.2" cy="47.3" rx="47.1" ry="47.3"/>
		</g>
		<g>
			<path class="st1" d="M46.2,94.6c-26,0-47.1-21.2-47.1-47.3C-0.9,21.2,20.3,0,46.2,0c26,0,47.1,21.2,47.1,47.3
				C93.3,73.4,72.2,94.6,46.2,94.6z M46.2,2.6C21.7,2.6,1.7,22.6,1.7,47.3c0,24.7,20,44.7,44.5,44.7c24.5,0,44.5-20.1,44.5-44.7
				C90.7,22.6,70.8,2.6,46.2,2.6z"/>
		</g>
	</g>
	<g id="Grupo_19" transform="translate(-16123.017 -4258.213)">
		<g id="Grupo_20" transform="translate(0 0)">
			<g id="Trazado_19">
				<path class="st2" d="M68.2,87.5c0,0,1.2,2.9,1.7,3.7c1.8,0.4,3.6-0.4,4.6-1.9c-0.1-1.6-0.4-3.1-0.8-4.6"/>
				<path class="st1" d="M70.8,92.7c-0.4,0-0.8,0-1.3-0.1c-0.4-0.1-0.7-0.3-0.9-0.7C68.2,91,67,88.1,67,88c-0.3-0.7,0-1.4,0.7-1.7
					c0.7-0.3,1.4,0,1.7,0.7c0,0,0.8,1.9,1.3,3.1c0.9,0,1.8-0.4,2.4-1.1c-0.1-1.3-0.4-2.6-0.7-3.9c-0.2-0.7,0.2-1.4,0.9-1.6
					c0.7-0.2,1.4,0.2,1.6,0.9c0.4,1.6,0.7,3.2,0.9,4.8c0,0.3,0,0.6-0.2,0.8C74.5,91.7,72.7,92.7,70.8,92.7z"/>
			</g>
			<g id="Trazado_14">
				<path class="st2" d="M-0.2,60.9c-0.2-3.1,18.4-20,40.4-35.5S86.2-1.9,88-0.9c1.9,1,5.1,4.3,5.9,6.4c0.8,2.1-9.4,16.1-23.6,34.6
					c-2.1,3-2.7,3.5-1.9,7.3c0.1,0.5,0.3,1.6,0.6,3c0.1,0.6,1.2,0.8,1.3,1.5c0.3,1.5,0.6,3.3,1,5.2c0.1,0.7-0.7,1.8-0.5,2.6
					c1.9,9.7,4,21.7,3.5,23.7c-0.8,3.1-5.4,4.8-7.4,4c-2-0.7-11.3-26.8-12.6-29.5c-1.3-2.7-2.8-3.5-6.1-1.7
					c-3.3,1.8-17.1,10.6-22.7,12C19.8,69.6,0,64-0.2,60.9z"/>
				<path class="st1" d="M68,88.8c-0.6,0-1.1-0.1-1.6-0.3c-1.5-0.5-3.3-4.1-10.6-23.3c-1.3-3.3-2.4-6.1-2.7-6.8
					c-0.5-1.1-1-1.7-1.5-1.9c-0.6-0.2-1.5,0-2.8,0.7c-0.8,0.4-2.3,1.3-4.3,2.5c-5.7,3.4-14.4,8.5-18.7,9.6c-5.3,1.3-21.1-2.8-25.6-6
					c-1-0.8-1.6-1.5-1.6-2.3l0,0c-0.3-4.3,21.4-22.9,41-36.6C52.8,15,65,8.2,71.1,5c15.4-8.2,17-7.3,17.6-7c2.1,1.1,5.5,4.7,6.5,7.1
					c0.7,1.8-0.6,5.8-23.8,35.8L71,41.3c-1.8,2.5-2,2.8-1.4,5.8l0.6,2.8c0,0,0.1,0.1,0.2,0.1c0.4,0.3,1,0.8,1.2,1.6
					c0.3,1.5,0.6,3.3,1,5.2c0.1,0.7-0.1,1.4-0.3,1.9c-0.1,0.2-0.2,0.6-0.2,0.7c4.2,21.6,3.7,23.4,3.4,24.2c-0.5,1.7-1.8,3.2-3.7,4.2
					C70.5,88.5,69.1,88.8,68,88.8z M67.4,86.2c0.6,0.2,1.9,0,3.1-0.7c1.3-0.7,2.2-1.6,2.4-2.5c0.1-0.5,0.2-3.6-3.5-23.1
					c-0.1-0.7,0.1-1.4,0.3-2c0.1-0.2,0.2-0.5,0.2-0.6c-0.4-1.8-0.7-3.5-1-5c-0.1-0.1-0.2-0.1-0.2-0.2c-0.4-0.3-0.9-0.7-1.1-1.5
					l-0.6-3c-0.8-4-0.2-5,1.8-7.8l0.3-0.5C84.6,19.4,92.5,8.2,92.7,5.9c-0.8-1.8-3.5-4.6-5.1-5.6c-3.2,0.2-25.1,11.1-46.6,26.2
					C17.7,42.8,2,58,1.1,60.8c0.6,0.8,4.2,2.7,10.4,4.4c5.9,1.6,11.3,2.3,13.5,1.7c4-1,12.8-6.2,18-9.3c2-1.2,3.5-2.1,4.4-2.5
					c2-1,3.5-1.3,4.8-0.9c1.6,0.5,2.5,2,3.1,3.2c0.4,0.8,1.4,3.4,2.8,7C60.7,70.9,65.9,84.4,67.4,86.2z M69,52.2
					C69,52.2,69,52.2,69,52.2C69,52.2,69,52.2,69,52.2z M70.2,50.1L70.2,50.1C70.2,50.1,70.2,50.1,70.2,50.1z M92.7,5.8L92.7,5.8
					L92.7,5.8z"/>
			</g>
			<g id="Trazado_17">
				<path class="st1" d="M57,53.4c-0.4,0-0.9-0.2-1.1-0.6c-0.4-0.6-0.2-1.4,0.5-1.8c2.2-1.3,6.9-4.8,6.9-4.8
					c0.6-0.4,1.4-0.3,1.8,0.3c0.4,0.6,0.3,1.4-0.3,1.8c-0.2,0.1-4.8,3.7-7.1,5C57.5,53.3,57.3,53.4,57,53.4z"/>
			</g>
			<g id="Trazado_18">
				<path class="st1" d="M70.6,61.5c-0.2,0-0.4,0-0.5-0.1c-3.5-1.6-3.8-2-4-2.3C66,59,66,58.8,66,58.7c-0.5-1.8-0.9-3.7-1.1-5.6
					c0-0.4,0.1-0.8,0.3-1c0.8-0.9,1.7-1.8,2.6-2.6c0.5-0.5,1.4-0.4,1.8,0.1c0.5,0.5,0.4,1.4-0.1,1.8c-0.7,0.6-1.4,1.2-2,1.9
					c0.2,1.4,0.5,2.9,0.8,4.3c0.5,0.3,1.8,0.9,2.8,1.4c0.7,0.3,0.9,1.1,0.7,1.7C71.6,61.2,71.1,61.5,70.6,61.5z"/>
			</g>
			<g id="Trazado_16">
				<path class="st1" d="M4.8,61.4c-0.6,0-1.2-0.4-1.3-1.1c-0.1-0.7,0.3-1.4,1-1.5c0.1,0,4.8-1,16.9-9.3C34,41,74,9.1,74.4,8.7
					c0.6-0.4,1.4-0.4,1.8,0.2c0.4,0.6,0.4,1.4-0.2,1.8C75.6,11.1,35.6,43,22.9,51.7C10.1,60.4,5.2,61.4,5,61.4
					C5,61.4,4.9,61.4,4.8,61.4z"/>
			</g>
			<g id="Trazado_15">
				<path class="st1" d="M86,12.3c-0.4,0-0.7-0.2-1-0.5c-1.3-1.6-2.8-3.2-4.3-4.7c-0.5-0.5-0.5-1.3,0-1.8c0.5-0.5,1.3-0.5,1.8,0
					c1.6,1.5,3.1,3.2,4.5,4.9c0.5,0.6,0.4,1.4-0.2,1.8C86.6,12.2,86.3,12.3,86,12.3z"/>
			</g>
		</g>
	</g>
</g>
</svg>
