<?xml version="1.0" encoding="utf-8"?>
<!-- Generator: Adobe Illustrator 25.3.1, SVG Export Plug-In . SVG Version: 6.00 Build 0)  -->
<svg version="1.1" id="Capa_1" xmlns="http://www.w3.org/2000/svg" xmlns:xlink="http://www.w3.org/1999/xlink" x="0px" y="0px"
	 viewBox="0 0 95.7 94.9" style="enable-background:new 0 0 95.7 94.9;" xml:space="preserve">
<style type="text/css">
	.st0{fill:#F8DFE1;}
	.st1{fill:#CB959F;}
	.st2{fill:#FFFFFF;}
</style>
<g id="Grupo_38" transform="translate(16119.015 4265.221)">
	<g id="Elipse_1_2_" transform="translate(-16119.015 -4265.221)">
		<g>
			<ellipse class="st0" cx="47.2" cy="47.4" rx="47.2" ry="47.4"/>
		</g>
		<g>
			<path class="st1" d="M47.2,94.9C21.2,94.9,0,73.6,0,47.4C0,21.3,21.2,0,47.2,0s47.2,21.3,47.2,47.4
				C94.4,73.6,73.2,94.9,47.2,94.9z M47.2,2.6C22.6,2.6,2.6,22.7,2.6,47.4c0,24.7,20,44.9,44.6,44.9s44.6-20.1,44.6-44.9
				C91.8,22.7,71.8,2.6,47.2,2.6z"/>
		</g>
	</g>
	<g id="Trazado_22">
		<path class="st2" d="M-16108.7-4202.3c0,0-0.4,24.4,0,24.9c0.4,0.5,0.7,3,4.1,3c3.4-0.1,15.7,0,15.7,0c0.9-0.7,1.4-1.8,1.2-3
			c-0.1-2.1-0.7-55.1-0.7-55.1h-3.1l-0.9-10.2h-11.5l-0.7,10.2l-4.1,0.5V-4202.3z"/>
	</g>
	<g id="Trazado_23">
		<path class="st2" d="M-16030-4208.1c0,0,3.4,7.7,4.2,9.9c0.8,2.2,1.9,7.3-1.5,8.3c-3.3,1-6-1.8-4.4-6.5c1.5-4.7,0-5.3,0-5.3
			l-7.2-3l-29.8-30l-4.3,2.1l-9.6-10.1l2.6-4.1c0,0-8.2-7.4-8.9-8c-1.3-1.2-4.1-4.9-0.9-8s7.5,1.1,11,4.9c0.8,0.9,1.5,1.6,5.8,6
			c1.4,1.4,3.5-3.8,3.5-3.8l9.8,8.9l-2.7,5L-16030-4208.1z"/>
	</g>
	<g id="Grupo_24" transform="translate(-16108.293 -4265.221)">
		<g id="Grupo_24-2" transform="translate(0 0)">
			<g id="Trazado_20">
				<path class="st1" d="M80.8,60c2.8,5.4,4.2,8.7,4.2,11.3c0,3-2.4,5.4-5.4,5.4s-5.4-2.4-5.4-5.4c0-1.7,0.6-3.7,1.8-6.4l-5.3-2.7
					c-1.1-0.6-2.2-1.3-3.1-2.2L39.1,31.4l-2.2,2.2c-1.1,1-2.8,1-3.8,0l-7.6-7.6c-1.6-1.6-1.6-4.1,0-5.7l1.2-1.2L17.7,10
					c-2.3-2.3-2.3-6,0-8.2s6-2.3,8.2,0L32,7.8c0.5,0.5,0.6,1.4,0.1,1.9s-1.4,0.6-1.9,0.1c0,0,0,0-0.1-0.1l0,0l0,0L24,3.6
					c-1.2-1.2-3.2-1.3-4.4,0c-1.2,1.2-1.3,3.2,0,4.4c0,0,0,0,0,0l9.1,9.1l7.6-7.6c1.6-1.6,4.1-1.6,5.7,0l7.6,7.6
					c1.1,1.1,1.1,2.8,0,3.8l-2.2,2.2l13,13c0.5,0.5,0.5,1.4,0,1.9c-0.5,0.5-1.4,0.5-1.9,0l0,0l-13-13L41,29.4l15.1,15.1H65l-2.8-2.8
					c-0.5-0.5-0.5-1.4,0.1-1.9c0.5-0.5,1.3-0.5,1.8,0l11.8,11.8c0.9,0.9,1.6,1.9,2.2,3.1C78.1,54.7,80.8,60,80.8,60L80.8,60z
					 M82.3,71.3c0-1.6-0.7-3.7-2.7-7.7c-2,4.1-2.7,6.1-2.7,7.7c0,1.5,1.2,2.7,2.7,2.7C81.1,74,82.3,72.8,82.3,71.3
					C82.3,71.3,82.3,71.3,82.3,71.3z M78.1,60.6L75.7,56c-0.4-0.9-1-1.7-1.7-2.4l-6.3-6.3h-8.9L69.6,58c0.7,0.7,1.5,1.3,2.4,1.7
					l5.2,2.7C77.5,61.8,77.8,61.2,78.1,60.6L78.1,60.6z M35,31.6L47.6,19L40,11.5c-0.5-0.5-1.4-0.5-1.9,0L27.5,22.1
					c-0.5,0.5-0.5,1.4,0,1.9L35,31.6z"/>
			</g>
			<g id="Trazado_21">
				<path class="st1" d="M21.7,33.8v54c0,2.2-1.8,4-4,4H2.5c-2.2,0-4-1.8-4-4v-54c0-1.5,1.2-2.7,2.7-2.7h1.1v-6.7c0-2.2,1.8-4,4-4
					h7.5c2.2,0,4,1.8,4,4v6.7H19C20.4,31.1,21.6,32.3,21.7,33.8z M19,87.8v-54h-2.4c-0.7,0-1.3-0.6-1.3-1.3c0,0,0,0,0,0v-8.1
					c0-0.7-0.6-1.3-1.3-1.3H6.3C5.6,23,5,23.6,5,24.4l0,0v1.3h6.2c0.7,0,1.4,0.6,1.4,1.3c0,0.7-0.6,1.4-1.3,1.4c0,0,0,0-0.1,0H5v2.7
					h6.2c0.7,0,1.4,0.6,1.4,1.3c0,0.7-0.6,1.4-1.3,1.4c0,0,0,0-0.1,0h-10v54c0,0.7,0.6,1.3,1.3,1.3h15.1C18.4,89.1,19,88.5,19,87.8
					L19,87.8z"/>
			</g>
		</g>
	</g>
</g>
</svg>
