<?xml version="1.0" encoding="utf-8"?>
<!-- Generator: Adobe Illustrator 25.3.1, SVG Export Plug-In . SVG Version: 6.00 Build 0)  -->
<svg version="1.1" id="Capa_1" xmlns="http://www.w3.org/2000/svg" xmlns:xlink="http://www.w3.org/1999/xlink" x="0px" y="0px"
	 viewBox="0 0 94.3 112.9" style="enable-background:new 0 0 94.3 112.9;" xml:space="preserve">
<style type="text/css">
	.st0{fill:#F8DFE1;}
	.st1{fill:#CB959F;}
	.st2{fill:#FFFFFF;}
</style>
<g id="Grupo_32" transform="translate(-158.462 -1003.099)">
	<g id="Grupo_22" transform="translate(158.462 1024.153)">
		<g id="Elipse_1_1_" transform="translate(0 0)">
			<g>
				<ellipse class="st0" cx="47.1" cy="44.4" rx="47.1" ry="47.4"/>
			</g>
			<g>
				<path class="st1" d="M47.1,91.8C21.2,91.8,0,70.6,0,44.4C0,18.3,21.2-2.9,47.1-2.9s47.1,21.3,47.1,47.4
					C94.3,70.6,73.1,91.8,47.1,91.8z M47.1-0.4C22.6-0.4,2.6,19.7,2.6,44.4c0,24.7,20,44.8,44.6,44.8s44.6-20.1,44.6-44.8
					C91.7,19.7,71.7-0.4,47.1-0.4z"/>
			</g>
		</g>
	</g>
	<g id="Grupo_31" transform="translate(165.383 1003.099)">
		<g id="Grupo_27" transform="translate(0.662 0.661)">
			<g id="Grupo_25" transform="translate(0 36.712)">
				<g id="Trazado_24">
					<path class="st2" d="M7.3,69.8h46.4c0.2,0,0.5-0.1,0.6-0.3c5-6.4,7.7-14.3,7.7-22.5v-15c0-0.4-0.3-0.8-0.8-0.8c0,0,0,0,0,0
						h-3.8V22c0-0.4-0.3-0.8-0.8-0.8h-4.4v-1.5c0-2.9-2.1-5.4-4.9-6L47,13.6l0-0.4c-0.2-4.9-1.9-9.6-4.8-13.6l-3.3-4.5
						c-0.1-0.2-0.4-0.3-0.6-0.3h0c-0.2,0-0.4,0.1-0.6,0.3l-4,5.2C31.1,3.7,27,5.7,22.6,5.7c-4.3,0-8,3.2-8.6,7.5L14,13.7l-0.4,0.1
						c-2.9,0.5-4.9,3-4.9,6v1.5H4.2c-0.4,0-0.8,0.3-0.8,0.8v9.3h-3.8c-0.4,0-0.8,0.3-0.8,0.8v0v15c0,8.1,2.7,16.1,7.7,22.5
						C6.8,69.7,7,69.8,7.3,69.8L7.3,69.8z"/>
				</g>
			</g>
			<g id="Grupo_26" transform="translate(32.092)">
				<g id="Trazado_25">
					<path class="st2" d="M15.8-0.1C11.4,0.1,7.1,1.5,3.5,4c-3.8,2.4-6.8,5.8-8.7,9.9c-1,2.4-0.1,5.2,2.1,6.5c0,0,0.1,0,0.1,0
						l14.7,5.7l0.1,0.2l32.5,49.4c0.8,1.2,2,2,3.3,2.3c2.9,0.6,5.6-1.3,6.2-4.1c0.3-1.4,0-2.8-0.7-4L20.6,20.3l0.6-15.8
						c0,0,0-0.1,0-0.1c-0.3-2.6-2.5-4.5-5.1-4.5C16-0.1,15.9-0.1,15.8-0.1z"/>
				</g>
			</g>
		</g>
		<g id="Grupo_30" transform="translate(0 0)">
			<g id="Grupo_28" transform="translate(0 36.712)">
				<g id="Trazado_26">
					<path class="st1" d="M35.4,16.4h2.7c0.7,0,1.3-0.6,1.3-1.3s-0.6-1.3-1.3-1.3l0,0h-2.7c-0.7,0-1.3,0.6-1.3,1.3
						S34.7,16.4,35.4,16.4L35.4,16.4z"/>
				</g>
				<g id="Trazado_27">
					<path class="st1" d="M61.9,31.4h-3.2v-8.7c0-0.7-0.6-1.3-1.3-1.3h-3.8v-1c0-3.2-2.2-5.9-5.4-6.5C48,8.8,46.3,4,43.3-0.1
						l-3.3-4.5c-0.2-0.3-0.6-0.5-1.1-0.5c-0.4,0-0.8,0.2-1.1,0.5L34,0.5c-2.6,3.3-6.5,5.3-10.7,5.3c-4.6,0-8.5,3.4-9.2,8
						c-3.1,0.6-5.4,3.3-5.4,6.5v1H4.9c-0.7,0-1.3,0.6-1.3,1.3v8.7H0.4C-0.4,31.4-1,32-1,32.7v15C-1,56,1.8,64,6.9,70.5
						c0.2,0.3,0.6,0.5,1,0.5h46.4c0.4,0,0.8-0.2,1-0.5c5.1-6.5,7.9-14.6,7.9-22.8v-15C63.3,32,62.7,31.4,61.9,31.4z M15.4,16.4h11.2
						c0.7,0,1.3-0.6,1.3-1.3s-0.6-1.3-1.3-1.3h-9.8c0.6-3.1,3.3-5.3,6.4-5.3c5,0,9.7-2.3,12.8-6.3L39-1.6l2.2,3.1
						c2.6,3.6,4.1,7.8,4.3,12.2H43c-0.7,0-1.3,0.6-1.3,1.3s0.6,1.3,1.3,1.3h3.7c0,0,0.1,0,0.1,0c0,0,0.1,0,0.1,0h0c2.2,0,4,1.8,4,4
						v1H11.4v-1C11.4,18.2,13.2,16.4,15.4,16.4L15.4,16.4z M6.2,29h16.1c0.7,0,1.3-0.6,1.3-1.3c0-0.7-0.6-1.3-1.3-1.3H6.2V24h49.9
						v2.4H39.9c-0.7,0-1.3,0.6-1.3,1.3c0,0.7,0.6,1.3,1.3,1.3h16.1v2.4H6.2L6.2,29z M60.6,47.7c0,7.5-2.4,14.7-6.9,20.7H8.6
						c-4.5-6-6.9-13.2-6.9-20.7V34h58.9V47.7z"/>
				</g>
			</g>
			<g id="Grupo_29" transform="translate(32.091 0)">
				<g id="Trazado_28">
					<path class="st1" d="M16.7,0C12.1,0.1,7.7,1.5,3.9,4.2c-3.9,2.4-7,6-8.9,10.1C-6.1,17-5.1,20-2.6,21.5c0.1,0,0.1,0.1,0.2,0.1
						l14.5,5.7l32.5,49.4c1.8,2.7,5.4,3.4,8.1,1.7c2.7-1.8,3.4-5.4,1.7-8.1l0,0L21.8,20.8l0.6-15.6c0-0.1,0-0.1,0-0.2
						C22,2.2,19.6,0,16.7,0L16.7,0z M20.3,22.7l3.2,4.8l-5.9,3.9l-3.2-4.8L20.3,22.7z M52.4,71.5c1.1,1.6,0.6,3.8-1,4.9
						c-1.6,1.1-3.8,0.6-4.9-1l-27.6-42l5.9-3.9L52.4,71.5z M20.1,5.3l-0.5,15.2L18.7,21l-1.1-3.3c-0.2-0.6-0.9-0.9-1.5-0.7
						c-0.6,0.2-0.9,0.9-0.7,1.5c0,0,0,0,0,0l1.3,3.8l-1,0.7l-3.7-3.6c-0.5-0.4-1.2-0.4-1.6,0c0,0,0,0,0,0c-0.4,0.5-0.4,1.2,0,1.6
						c0,0,0,0,0,0l3.4,3.3l-1,0.6l-14.2-5.5c-1.4-0.9-2-2.7-1.3-4.3c2.9-7,12-13,19.5-12.9l0,0C18.4,2.3,19.8,3.6,20.1,5.3L20.1,5.3
						z"/>
				</g>
			</g>
		</g>
	</g>
</g>
</svg>
