<?xml version="1.0" encoding="utf-8"?>
<!-- Generator: Adobe Illustrator 25.3.1, SVG Export Plug-In . SVG Version: 6.00 Build 0)  -->
<svg version="1.1" id="Capa_1" xmlns="http://www.w3.org/2000/svg" xmlns:xlink="http://www.w3.org/1999/xlink" x="0px" y="0px"
	 viewBox="0 0 34.7 33.9" style="enable-background:new 0 0 34.7 33.9;" xml:space="preserve">
<style type="text/css">
	.st0{opacity:0.604;}
	.st1{fill-rule:evenodd;clip-rule:evenodd;fill:#323232;}
	.st2{fill-rule:evenodd;clip-rule:evenodd;fill:#FEFEFE;}
</style>
<g id="Grupo_138" transform="translate(0)" class="st0">
	<path id="Trazado_225" class="st1" d="M9.8,3.6h15c3.3,0,5.9,2.6,5.9,5.9v15c0,3.3-2.6,5.9-5.9,5.9h-15c-3.3,0-5.9-2.7-5.9-5.9v-15
		C4,6.2,6.6,3.6,9.8,3.6L9.8,3.6z"/>
	<path id="Trazado_226" class="st2" d="M18.6,13.9v-1.3c0-0.4,0.2-0.7,0.6-0.8c0,0,0.1,0,0.1,0h1.8V9.1h-2.5
		c-1.7-0.1-3.2,1.1-3.4,2.9c0,0.2,0,0.3,0,0.5v1.5h-1.6v3.2h1.6v8.1h3.2v-8.1h2.4l0.1-1.3l0.2-2L18.6,13.9z"/>
</g>
</svg>
