<?xml version="1.0" encoding="utf-8"?>
<!-- Generator: Adobe Illustrator 25.3.1, SVG Export Plug-In . SVG Version: 6.00 Build 0)  -->
<svg version="1.1" id="Capa_1" xmlns="http://www.w3.org/2000/svg" xmlns:xlink="http://www.w3.org/1999/xlink" x="0px" y="0px"
	 viewBox="0 0 34.7 33.9" style="enable-background:new 0 0 34.7 33.9;" xml:space="preserve">
<style type="text/css">
	.st0{fill:#FFFFFF;}
</style>
<g id="Grupo_147" transform="translate(0 0)">
	<g id="Grupo_144">
		<path id="Trazado_234" class="st0" d="M23.6,31.6H11.1c-4.6,0-8.3-3.7-8.3-8.3V10.7c0-4.6,3.7-8.3,8.3-8.3h12.6
			c4.6,0,8.3,3.7,8.3,8.3v12.6C32,27.8,28.2,31.6,23.6,31.6z M11.1,4.8c-3.2,0-5.8,2.6-5.8,5.8v12.6c0,3.2,2.6,5.8,5.8,5.8h12.6
			c3.2,0,5.8-2.6,5.8-5.8V10.7c0-3.2-2.6-5.8-5.8-5.8L11.1,4.8z"/>
	</g>
	<g id="Grupo_145" transform="translate(7.128 7.127)">
		<path id="Trazado_235" class="st0" d="M10.2,17.3c-4.1,0-7.5-3.3-7.5-7.5s3.3-7.5,7.5-7.5c4.1,0,7.5,3.3,7.5,7.5
			C17.7,14,14.4,17.3,10.2,17.3z M10.2,4.8c-2.7,0-5,2.2-5,5s2.2,5,5,5c2.7,0,5-2.2,5-5c0,0,0,0,0,0C15.2,7.1,13,4.8,10.2,4.8
			L10.2,4.8z"/>
	</g>
	<g id="Grupo_146" transform="translate(20.612 4.901)">
		<path id="Trazado_236" class="st0" d="M6.3,4.1c0,1-0.8,1.8-1.8,1.8c-1,0-1.8-0.8-1.8-1.8c0-1,0.8-1.8,1.8-1.8c0,0,0,0,0,0
			C5.5,2.3,6.3,3.1,6.3,4.1z"/>
	</g>
</g>
</svg>
