<?xml version="1.0" encoding="utf-8"?>
<!-- Generator: Adobe Illustrator 25.3.1, SVG Export Plug-In . SVG Version: 6.00 Build 0)  -->
<svg version="1.1" id="Capa_1" xmlns="http://www.w3.org/2000/svg" xmlns:xlink="http://www.w3.org/1999/xlink" x="0px" y="0px"
	 viewBox="0 0 34.7 33.9" style="enable-background:new 0 0 34.7 33.9;" xml:space="preserve">
<style type="text/css">
	.st0{fill-rule:evenodd;clip-rule:evenodd;fill:#FEFEFE;}
</style>
<path id="Trazado_238" class="st0" d="M17.6,27.2c-2.1,0-4.1-0.6-5.9-1.8l-4.1,1.3L9,22.8c-1.3-1.8-2-4-2-6.2c0-0.3,0-0.7,0.1-1
	c0.6-5.9,5.9-10.1,11.7-9.5c5.1,0.5,9.1,4.6,9.5,9.7c0,0.3,0,0.6,0,0.8C28.2,22.5,23.4,27.2,17.6,27.2L17.6,27.2z M23.4,19.2
	c-0.3-0.2-1.8-0.9-2.1-1c-0.3-0.1-0.5-0.2-0.7,0.2c-0.3,0.4-0.6,0.8-1,1.2c-0.2,0.2-0.4,0.2-0.7,0.1c-0.9-0.4-1.8-0.9-2.5-1.5
	c-0.7-0.6-1.3-1.3-1.7-2.1c-0.2-0.3,0-0.5,0.1-0.6c0.2-0.2,0.3-0.3,0.5-0.5c0,0,0.1-0.1,0.1-0.1c0.1-0.1,0.1-0.2,0.2-0.4
	c0.1-0.2,0.1-0.4,0-0.5c-0.1-0.2-0.7-1.7-1-2.3c-0.3-0.6-0.5-0.5-0.7-0.5c-0.2,0-0.4,0-0.6,0c-0.3,0-0.6,0.1-0.8,0.4
	c-1,0.9-1.4,2.3-0.9,3.6c0.2,0.8,0.6,1.5,1.1,2.1c1.3,2,3.1,3.6,5.3,4.6c3.2,1.2,3.2,0.8,3.7,0.8c0.9-0.2,1.6-0.7,2.1-1.5
	c0.2-0.5,0.3-1,0.2-1.5C23.9,19.4,23.7,19.3,23.4,19.2L23.4,19.2z M30.2,16.3C30,9.3,24.2,3.8,17.2,4.1c-6.6,0.2-11.9,5.4-12.2,12
	c0,0.2,0,0.4,0,0.5c0,2.3,0.6,4.5,1.8,6.5l-2.3,6.7l7-2.2c6.2,3.4,13.9,1.1,17.2-5.1c1-1.8,1.5-3.9,1.6-6
	C30.3,16.5,30.2,16.4,30.2,16.3L30.2,16.3z"/>
</svg>
