<?xml version="1.0" encoding="utf-8"?>
<!-- Generator: Adobe Illustrator 25.4.1, SVG Export Plug-In . SVG Version: 6.00 Build 0)  -->
<svg version="1.1" id="Capa_1" xmlns="http://www.w3.org/2000/svg" xmlns:xlink="http://www.w3.org/1999/xlink" x="0px" y="0px"
	 viewBox="0 0 18.9 25" style="enable-background:new 0 0 18.9 25;" xml:space="preserve">
<style type="text/css">
	.st0{fill:#FFFFFF;}
</style>
<path id="Trazado_287" class="st0" d="M12.7,10.7c2.1-1.8,4.5-3.5,4.5-6.4V2.4h1.7V0H0v2.4h1.7v1.9c0,2.9,2.3,4.6,4.5,6.4
	c0.4,0.4,0.7,1,0.7,1.6c0,0.5-0.3,1-0.7,1.4c-2.2,1.7-4.5,3.5-4.5,6.4v2.5H0V25h18.8v-2.4h-1.7v-2.5c0-2.9-2.3-4.7-4.5-6.4
	c-0.4-0.3-0.7-0.8-0.7-1.4C12,11.7,12.2,11.1,12.7,10.7z M14.7,2.4v1.9c0,0.8-0.4,1.6-1,2.2H5.1c-0.6-0.6-1-1.4-1-2.2V2.4H14.7z
	 M14.7,20.1v1.8l-4-1.6C9.9,20,9,20,8.1,20.3l-4,1.6v-1.8c0-1.7,1.3-2.8,3.5-4.5h0.1C8.5,15,9,14.1,9.2,13.1c0.2,0,0.3,0,0.5,0
	c0.2,1,0.7,1.9,1.5,2.5h0.1C13.4,17.3,14.7,18.4,14.7,20.1L14.7,20.1z"/>
</svg>
