<svg id="Capa_1" data-name="Capa 1" xmlns="http://www.w3.org/2000/svg" viewBox="0 0 96.91 96.07"><defs><style>.cls-1{fill:#fff;}</style></defs><path class="cls-1" d="M93.44,62.24A48.08,48.08,0,0,0,47.79,0,47,47,0,0,0,36.66,1.33a5.89,5.89,0,0,0-9.5,3.39A48.13,48.13,0,0,0,9.34,76.53V88.91A4.09,4.09,0,0,0,13.43,93H28.7a4,4,0,0,0,1.52-.3,47.13,47.13,0,0,0,17.57,3.37A47.67,47.67,0,0,0,87,75.39a5.44,5.44,0,0,0,9.87-3.18C96.91,69.77,95.75,66.85,93.44,62.24ZM92.57,48a45.11,45.11,0,0,1-1.16,10.2L90,55.44a12,12,0,0,0-2.25-3.09L75.79,40.41a1.36,1.36,0,0,0-1.93,1.93l2.8,2.8h-9L52.36,29.83l4.5-4.5L70.05,38.52A1.36,1.36,0,1,0,72,36.59L58.79,23.4,61,21.21a2.71,2.71,0,0,0,0-3.85L53.32,9.7a4.1,4.1,0,0,0-5.78,0l-7.65,7.65-9.2-9.19a3.13,3.13,0,0,1-.81-1.39,3.18,3.18,0,0,1,5.31-3.11l6.16,6.16,0,0a1.36,1.36,0,1,0,1.88-2L39.22,3.84A44.08,44.08,0,0,1,47.79,3,45,45,0,0,1,92.57,48ZM89,63.22l-5.3-2.7a9.86,9.86,0,0,1-2.4-1.75L70.39,47.86h9l6.41,6.41a9.41,9.41,0,0,1,1.75,2.41l2.39,4.67h0C89.6,62,89.29,62.63,89,63.22ZM46.32,32l-7.66-7.66a1.36,1.36,0,0,1,0-1.92l10.8-10.8a1.36,1.36,0,0,1,1.92,0L59,19.28ZM13.43,90.28a1.38,1.38,0,0,1-1.37-1.37V34.24H22.14a1.37,1.37,0,1,0,0-2.73H15.9V28.79h6.24a1.37,1.37,0,1,0,0-2.73H15.9V24.7a1.36,1.36,0,0,1,1.36-1.36h7.61a1.36,1.36,0,0,1,1.36,1.36v8.18a1.36,1.36,0,0,0,1.36,1.36h2.47V88.91a1.33,1.33,0,0,1-.08.45,1.35,1.35,0,0,1-1.28.92H13.43Zm34.36,2.79a44.29,44.29,0,0,1-15.28-2.7,4.12,4.12,0,0,0,.27-1.46V34.24a2.72,2.72,0,0,0-2.72-2.73H29V24.7a4.11,4.11,0,0,0-4.09-4.09H17.26a4.1,4.1,0,0,0-4.09,4.09v6.81h-1.1a2.73,2.73,0,0,0-2.73,2.73V71.12A45.16,45.16,0,0,1,27.4,7.94a5.8,5.8,0,0,0,1.37,2.14L38,19.28,36.74,20.5a4.08,4.08,0,0,0,0,5.78l7.65,7.66a2.74,2.74,0,0,0,3.86,0l2.18-2.19L79.38,60.69a12,12,0,0,0,3.09,2.25l5.37,2.75a16.64,16.64,0,0,0-1.75,5.66h0A44.75,44.75,0,0,1,47.79,93.07Zm46.4-20.85a2.73,2.73,0,0,1-5.41.47,2.59,2.59,0,0,1,0-.48c0-1.6.71-3.7,2.72-7.82l.7,1.45h0c1.49,3.18,2,5,2,6.36Z"/></svg>