<?xml version="1.0" encoding="utf-8"?>
<!-- Generator: Adobe Illustrator 25.3.1, SVG Export Plug-In . SVG Version: 6.00 Build 0)  -->
<svg version="1.1" id="Capa_1" xmlns="http://www.w3.org/2000/svg" xmlns:xlink="http://www.w3.org/1999/xlink" x="0px" y="0px"
	 viewBox="0 0 106.9 114.2" style="enable-background:new 0 0 106.9 114.2;" xml:space="preserve">
<style type="text/css">
	.st0{fill:#F8DFE1;}
	.st1{fill:#CB959F;}
	.st2{fill:#FFFFFF;stroke:#CB959F;stroke-width:2.6201;stroke-miterlimit:10;}
	.st3{fill:none;stroke:#CB959F;stroke-width:2;stroke-linecap:round;stroke-linejoin:round;stroke-miterlimit:10.0003;}
	.st4{fill:#FFFFFF;stroke:#CB959F;stroke-width:1.7468;stroke-linecap:round;stroke-miterlimit:10;}
	.st5{fill:#FFFFFF;stroke:#CB959F;stroke-width:1.7468;stroke-linecap:round;stroke-miterlimit:9.9999;}
	.st6{fill:#FFFFFF;stroke:#CB959F;stroke-width:1.7469;stroke-linecap:round;stroke-miterlimit:10.0007;}
	.st7{fill:#FFFFFF;stroke:#CB959F;stroke-width:1.7469;stroke-linecap:round;stroke-linejoin:round;stroke-miterlimit:10.0003;}
	.st8{fill:none;stroke:#CB959F;stroke-width:1.7469;stroke-linecap:round;stroke-linejoin:round;stroke-miterlimit:10.0003;}
</style>
<g id="Elipse_1" transform="translate(-16118.431 -4265.221)">
	<g>
		<ellipse class="st0" cx="16177.5" cy="4321.4" rx="47.1" ry="47.3"/>
	</g>
	<g>
		<path class="st1" d="M16177.5,4368.7c-26,0-47.1-21.2-47.1-47.3c0-26.1,21.2-47.3,47.1-47.3c26,0,47.1,21.2,47.1,47.3
			S16203.5,4368.7,16177.5,4368.7z M16177.5,4276.7c-24.5,0-44.5,20-44.5,44.7s20,44.7,44.5,44.7s44.5-20.1,44.5-44.7
			C16222,4296.7,16202.1,4276.7,16177.5,4276.7z"/>
	</g>
</g>
<g>
	<path class="st2" d="M100.9,30.1c2.5-3.1,6.7-5.1,0.3-12.6c-6.3-7.5-8.7-7.8-14.4-4.1c-2.5,1.7-36.1,23.4-38.9,24.9
		s-7.9,0.5-22.2,7.1c-7.5,3.5-15.5,10.8-18.4,13.3c-1.3,1.1-2.8,2.7-3.2,5.9c-0.4,3.3,1.5,5.1,4.8,8.6c3.5,3.8,4.6,6.1,6.7,8.8
		c2.1,2.6,3.9,5,5.3,7.7c1.9,3.5,3.3,3,7.3,3.5c3.7,0.5,10.1-1,10.1-1s4.6,2.1,6.1,2s4.3,0.1,8.7-3.7c4.4-3.8,13.7-10.8,17.7-28.5
		C70.8,62,94.1,38.6,100.9,30.1z"/>
	<path class="st3" d="M56.8,87.3c0.7-0.4,1-5.7-2.6-10.9c-3.6-5.1-6.5-4-11.9-10.7s-3.6-7.6-7.2-11.1s-7.9-3.9-10-3.3
		c-2.6,0.7-3.9,3.6-5.5,4.5c-1.8,0.8-5.5-2.3-7.9-0.6"/>
	<g>
		<path class="st4" d="M22.8,98.4c0,0,5.7-4.9,6.3-5.7c0.3-0.3,2.2-3.1-1-6.4c-3-3.2-6.1-1-6.1-1l-5.8,5.1"/>
		<ellipse transform="matrix(0.7773 -0.6291 0.6291 0.7773 -54.9722 33.4137)" class="st5" cx="19.7" cy="94.4" rx="3" ry="5.2"/>
	</g>
	<g>
		<path class="st4" d="M19.7,87.6c0,0,4.6-3.6,5.2-4.3c0.2-0.2,1.8-2.4-0.6-5.1c-2.3-2.6-4.8-1-4.8-1L14.8,81"/>
		<ellipse transform="matrix(0.7998 -0.6003 0.6003 0.7998 -47.1312 27.2572)" class="st6" cx="17.3" cy="84.3" rx="2.5" ry="4.1"/>
	</g>
	<g>
		<path class="st4" d="M8.3,81.7c0,0,5.7-4.9,6.3-5.7c0.3-0.3,2.2-3.1-1-6.4c-3-3.2-6.1-1-6.1-1l-5.8,5.1"/>
		<ellipse transform="matrix(0.7773 -0.6291 0.6291 0.7773 -47.7276 20.5193)" class="st5" cx="5.1" cy="77.7" rx="3" ry="5.2"/>
	</g>
	<g>
		<path class="st4" d="M34.6,95.4c0,0,5.7-4.9,6.3-5.7c0.3-0.3,2.2-3.1-1-6.4c-3-3.2-6.1-1-6.1-1l-5.7,5.1"/>
		<ellipse transform="matrix(0.7773 -0.6291 0.6291 0.7773 -50.5777 40.0792)" class="st5" cx="31.3" cy="91.5" rx="3" ry="5.2"/>
	</g>
	<g>
		<path class="st4" d="M18.8,77.8c0,0,5.7-4.9,6.3-5.7c0.3-0.3,2.2-3.1-1-6.4c-3-3.2-6.1-1-6.1-1l-5.8,5.1"/>
		<ellipse transform="matrix(0.7773 -0.6291 0.6291 0.7773 -43.0237 26.2156)" class="st5" cx="15.5" cy="73.9" rx="3" ry="5.2"/>
	</g>
	<ellipse transform="matrix(0.7415 -0.671 0.671 0.7415 -44.1952 40.2762)" class="st7" cx="30.2" cy="77.5" rx="2.3" ry="3.7"/>
	<path class="st8" d="M46.9,93.8c1.8-0.2,2.1-4.1,1.1-6.6s-3.8-7.2-7.9-9.8c-4.1-2.6-7.3-3.9-8.8-8.9S25,59.8,21.9,59
		c-3.3-0.7-5.9,0.3-6.9,2.2c-1.2,2.3-2,2.7-6.2,1.3c-3-1-4.4,0.6-4.7,1.1"/>
</g>
</svg>
