<?xml version="1.0" encoding="utf-8"?>
<!-- Generator: Adobe Illustrator 25.3.1, SVG Export Plug-In . SVG Version: 6.00 Build 0)  -->
<svg version="1.1" id="Capa_1" xmlns="http://www.w3.org/2000/svg" xmlns:xlink="http://www.w3.org/1999/xlink" x="0px" y="0px"
	 viewBox="0 0 97.7 112.3" style="enable-background:new 0 0 97.7 112.3;" xml:space="preserve">
<style type="text/css">
	.st0{fill:#EEFFFE;}
	.st1{fill:#48DFCA;}
	.st2{fill:#FFFFFF;}
</style>
<g id="Grupo_54" transform="translate(16147.373 4279.691)">
	<g id="Elipse_1_3_" transform="translate(-16113.661 -4262.489)">
		<g>
			<ellipse class="st0" cx="15.1" cy="46" rx="48.8" ry="49.1"/>
		</g>
		<g>
			<g>
				<path class="st1" d="M15.1,95.1c-26.9,0-48.8-22-48.8-49.1S-11.8-3.1,15.1-3.1S64,19,64,46S42.1,95.1,15.1,95.1z M15.1-0.5
					c-25.5,0-46.3,20.9-46.3,46.5s20.8,46.5,46.3,46.5S61.4,71.7,61.4,46S40.6-0.5,15.1-0.5z"/>
			</g>
		</g>
	</g>
	<g id="Trazado_35">
		<path class="st2" d="M-16128.5-4243.4v46.8l18.9,0.3v-46.8L-16128.5-4243.4z"/>
	</g>
	<g id="Trazado_36">
		<path class="st2" d="M-16123.7-4243.2h9.6c0,0,0-2,0-6.9s-9.8-3-9.8,0.9C-16123.9-4245.3-16123.7-4243.2-16123.7-4243.2z"/>
	</g>
	<g id="jeringa" transform="translate(-16147.373 -4213.167) rotate(-45)">
		<g id="Trazado_33">
			<path class="st1" d="M23,5.1c0,0.9-0.7,1.6-1.6,1.6c-0.9,0-1.6-0.7-1.6-1.6s0.7-1.6,1.6-1.6C22.3,3.6,23,4.3,23,5.1L23,5.1z"/>
		</g>
		<g id="Trazado_34">
			<path class="st1" d="M67-27.1c-0.6-0.6-1.6-0.6-2.2,0l0,0L48-10.3c-2.5-1.5-5.6-1.1-7.7,1l-2.2,2.2l-2.2-2.2
				c-0.6-0.6-1.6-0.6-2.2,0l0,0L25.3-1c-0.6,0.6-0.6,1.6,0,2.2s1.6,0.6,2.2,0L34.7-6L37-3.8l0,0l8.9,8.9l-4.5,4.5L35.8,4
				c-0.6-0.6-1.6-0.6-2.2,0c-0.6,0.6-0.6,1.6,0,2.2l5.6,5.6l-4.5,4.5l-5.6-5.6c-0.6-0.6-1.6-0.6-2.2,0c-0.6,0.6-0.6,1.6,0,2.2l0,0
				l5.6,5.6L28,23.1l-5.6-5.6c-0.6-0.6-1.6-0.6-2.2,0s-0.6,1.6,0,2.2l5.6,5.6l-4.5,4.5L10.1,18.6l7.3-7.3c0.6-0.6,0.6-1.6,0-2.2
				c-0.6-0.6-1.6-0.6-2.2,0l-14,14L-1,20.8c-0.6-0.6-1.6-0.6-2.2,0s-0.6,1.6,0,2.2l0,0l6.7,6.7l-9.7,9.7l-4.5-4.5
				c-0.6-0.6-1.6-0.6-2.2,0c-0.6,0.6-0.6,1.6,0,2.2L2.7,52.9c0.6,0.6,1.6,0.6,2.2,0s0.6-1.6,0-2.2l-4.5-4.5l9.7-9.7l6.7,6.7
				c0.6,0.6,1.6,0.6,2.2,0s0.6-1.6,0-2.2l-2.2-2.2L49.2,6.3c0.6-0.6,0.6-1.6,0-2.2l0,0L47,1.8l2.2-2.2c2-2,2.4-5.2,1-7.7L67-24.9
				C67.6-25.5,67.6-26.5,67-27.1L67-27.1L67-27.1z M7.9,20.8L19.1,32l-4.5,4.5L3.4,25.3L7.9,20.8z M-1.8,44L-4,41.7L5.7,32l2.2,2.2
				L-1.8,44z M47-2.6l-2.2,2.2l-4.5-4.5l2.2-2.2c1.2-1.2,3.2-1.2,4.5,0l0,0C48.2-5.9,48.2-3.9,47-2.6z"/>
		</g>
	</g>
	<g id="Unión_1">
		<path class="st2" d="M-16082.4-4195c-0.5,0-0.9-0.4-0.9-0.9v-15h-15c-0.5,0-0.9-0.4-0.9-0.9v-9.5c0-0.5,0.4-0.9,0.9-0.9h15v-15
			c0-0.5,0.4-0.9,0.9-0.9h9.5c0.5,0,0.9,0.4,0.9,0.9v15h15c0.5,0,0.9,0.4,0.9,0.9v9.5c0,0.5-0.4,0.9-0.9,0.9h-15v15
			c0,0.5-0.4,0.9-0.9,0.9H-16082.4z"/>
		<path class="st1" d="M-16072.8-4193.7h-9.5c-1.2,0-2.1-1-2.1-2.1v-13.7h-13.7c-1.2,0-2.2-1-2.2-2.1v-9.5c0-1.2,1-2.1,2.2-2.1h13.7
			v-13.7c0-1.2,1-2.1,2.1-2.1h9.5c1.2,0,2.2,1,2.2,2.1v13.7h13.7c1.2,0,2.2,1,2.2,2.1v9.5c0,1.2-1,2.1-2.2,2.1h-13.7v13.7
			C-16070.7-4194.7-16071.6-4193.7-16072.8-4193.7z M-16081.9-4196.3h8.7v-15.8h15.8v-8.7h-15.8v-15.8h-8.7v15.8h-15.8v8.7h15.8
			V-4196.3z"/>
	</g>
</g>
</svg>
