<svg id="Capa_1" data-name="Capa 1" xmlns="http://www.w3.org/2000/svg" viewBox="0 0 95.56 114.41"><defs><style>.cls-1{fill:#fff;}</style></defs><path class="cls-1" d="M95.56,66.38A48.06,48.06,0,0,0,61.69,20.43L62.23,5.3a1.41,1.41,0,0,0,0-.2A5.86,5.86,0,0,0,56.48,0a23.48,23.48,0,0,0-13,4.21,23.51,23.51,0,0,0-9,10.27,5.86,5.86,0,0,0,.59,5.6A48.13,48.13,0,0,0,6.34,90.27,37.57,37.57,0,0,0,14,108.66a1.32,1.32,0,0,0,1.06.52h11a47.32,47.32,0,0,0,21.67,5.23,47.89,47.89,0,0,0,46.3-36.18,5.92,5.92,0,0,0,1.11-5.82A50.06,50.06,0,0,0,95.56,66.38Zm-3,0q0,.83,0,1.65L63.8,24.34A45.07,45.07,0,0,1,92.56,66.38Zm-1,11a2.93,2.93,0,0,1-.39.21,3.58,3.58,0,0,1-4.5-1.22l-28-42.57,6-3.92,27.6,42,.39.59A3.58,3.58,0,0,1,91.54,77.39ZM60.18,23.1l3.16,4.81-6,3.93L54.17,27l5.92-3.9ZM36.62,15.38c2.91-7.07,12.17-13.15,19.81-13a3.54,3.54,0,0,1,2.26.85,3.51,3.51,0,0,1,1.17,2.12h0l-.51,14.45,0,1-.84.55-.66-1.9L57.33,18a1.18,1.18,0,0,0-2.29.4,1.31,1.31,0,0,0,.06.38l0,.12,1.14,3.25.17.49-1.06.7-1.65-1.61-2.13-2.08a1.19,1.19,0,0,0-1.67,0,1.16,1.16,0,0,0-.34.83,1.15,1.15,0,0,0,.36.84l0,.05,3.36,3.27-1,.65-9.51-3.71L38,19.71a2.42,2.42,0,0,1-.36-.27A3.51,3.51,0,0,1,36.62,15.38ZM21.53,106.49H15.72A35.3,35.3,0,0,1,8.87,88.66c-.1-1-.15-2.09-.15-3.14V71.7H68.43V85.52a35,35,0,0,1-7,21H21.53Zm8.13-42.58H13.3V61.5H63.85v2.41H47.48a1.35,1.35,0,0,0,0,2.69H63.85V69H13.3V66.6H29.66a1.35,1.35,0,1,0,0-2.69ZM34,51.11H24.07a6.71,6.71,0,0,1,6.55-5.34,16.4,16.4,0,0,0,13-6.4l2.9-3.78,2.26,3.13a23.19,23.19,0,0,1,4.4,12.39h-2.6a1.35,1.35,0,0,0,0,2.69H54.3l.13,0,.12,0h0a4,4,0,0,1,4,4v1H18.54v-1a4,4,0,0,1,4.05-4H34a1.35,1.35,0,0,0,0-2.69Zm13.79,60.3a44.21,44.21,0,0,1-13.92-2.23H61.7A44.21,44.21,0,0,1,47.78,111.41Zm15.35-2.73,0,0a37.81,37.81,0,0,0,8-23.14V70.35A1.36,1.36,0,0,0,69.77,69H66.54V60.16a1.36,1.36,0,0,0-1.35-1.35H61.3v-1a6.75,6.75,0,0,0-5.43-6.6,26,26,0,0,0-4.94-14.1l-3.32-4.59A1.37,1.37,0,0,0,46.54,32a1.27,1.27,0,0,0-1.08.52l-4,5.22a13.73,13.73,0,0,1-10.85,5.35,9.38,9.38,0,0,0-9.28,8.14,6.73,6.73,0,0,0-5.48,6.61v1H12a1.34,1.34,0,0,0-1.35,1.35V69H7.37A1.34,1.34,0,0,0,6,70.35V82.66A45.11,45.11,0,0,1,38.32,22.37l13.43,5.24L84.68,77.68a6,6,0,0,0,5.71,2.55A45.11,45.11,0,0,1,63.13,108.68Z"/><path class="cls-1" d="M42.89,53.8h2.7a1.35,1.35,0,1,0,0-2.69h-2.7a1.35,1.35,0,0,0,0,2.69Z"/></svg>