<?xml version="1.0" encoding="utf-8"?>
<!-- Generator: Adobe Illustrator 25.3.1, SVG Export Plug-In . SVG Version: 6.00 Build 0)  -->
<svg version="1.1" id="Capa_1" xmlns="http://www.w3.org/2000/svg" xmlns:xlink="http://www.w3.org/1999/xlink" x="0px" y="0px"
	 viewBox="0 0 34.7 33.9" style="enable-background:new 0 0 34.7 33.9;" xml:space="preserve">
<style type="text/css">
	.st0{opacity:0.604;}
	.st1{fill-rule:evenodd;clip-rule:evenodd;fill:#323232;}
	.st2{fill:#FFFFFF;}
</style>
<g id="Grupo_137" transform="translate(50.363)" class="st0">
	<path id="Trazado_221" class="st1" d="M-40.5,3.6h15c3.3,0,5.9,2.6,5.9,5.9v15c0,3.3-2.6,5.9-5.9,5.9h-15c-3.3,0-5.9-2.7-5.9-5.9
		v-15C-46.4,6.2-43.8,3.6-40.5,3.6L-40.5,3.6z"/>
	<g id="Grupo_136" transform="translate(4.279 4.279)">
		<g id="Grupo_133">
			<path id="Trazado_222" class="st2" d="M-33.4,21.8h-7.9c-2.9,0-5.2-2.3-5.2-5.2V8.8c0-2.9,2.3-5.2,5.2-5.2h7.9
				c2.9,0,5.2,2.3,5.2,5.2v7.9C-28.2,19.5-30.5,21.8-33.4,21.8z M-41.2,5.1c-2,0-3.6,1.6-3.6,3.6v7.9c0,2,1.6,3.6,3.6,3.6h7.9
				c2,0,3.6-1.6,3.6-3.6V8.8c0-2-1.6-3.6-3.6-3.6H-41.2z"/>
		</g>
		<g id="Grupo_134" transform="translate(4.45 4.45)">
			<path id="Trazado_223" class="st2" d="M-41.7,12.9c-2.6,0-4.7-2.1-4.7-4.7c0-2.6,2.1-4.7,4.7-4.7s4.7,2.1,4.7,4.7
				C-37.1,10.8-39.2,12.9-41.7,12.9z M-41.7,5.1c-1.7,0-3.1,1.4-3.1,3.1c0,1.7,1.4,3.1,3.1,3.1c1.7,0,3.1-1.4,3.1-3.1
				C-38.6,6.5-40,5.1-41.7,5.1L-41.7,5.1z"/>
		</g>
		<g id="Grupo_135" transform="translate(12.87 3.06)">
			<path id="Trazado_224" class="st2" d="M-44.2,4.7c0,0.6-0.5,1.1-1.1,1.1c-0.6,0-1.1-0.5-1.1-1.1c0-0.6,0.5-1.1,1.1-1.1h0
				C-44.7,3.6-44.2,4.1-44.2,4.7z"/>
		</g>
	</g>
</g>
</svg>
