<?xml version="1.0" encoding="utf-8"?>
<!-- Generator: Adobe Illustrator 25.4.1, SVG Export Plug-In . SVG Version: 6.00 Build 0)  -->
<svg version="1.1" id="Capa_1" xmlns="http://www.w3.org/2000/svg" xmlns:xlink="http://www.w3.org/1999/xlink" x="0px" y="0px"
	 viewBox="0 0 30 30" style="enable-background:new 0 0 30 30;" xml:space="preserve">
<style type="text/css">
	.st0{opacity:0.649;}
	.st1{fill:#707070;}
	.st2{fill:#FFFFFF;}
</style>
<g id="Grupo_332" class="st0">
	<circle id="Elipse_20" class="st1" cx="15" cy="15" r="15"/>
	<g id="Grupo_327" transform="translate(6.905 6.906)">
		<g id="Grupo_147" transform="translate(0 0)">
			<g id="Grupo_144">
				<path id="Trazado_234" class="st2" d="M11.6,16.2h-7c-2.5,0-4.6-2.1-4.6-4.6v-7C0,2.1,2.1,0,4.6,0h7c2.5,0,4.6,2.1,4.6,4.6v7
					C16.2,14.1,14.1,16.2,11.6,16.2z M4.6,1.4c-1.8,0-3.2,1.4-3.2,3.2v7c0,1.8,1.4,3.2,3.2,3.2h7c1.8,0,3.2-1.4,3.2-3.2v-7
					c0-1.8-1.4-3.2-3.2-3.2H4.6z"/>
			</g>
			<g id="Grupo_145" transform="translate(3.951 3.951)">
				<path id="Trazado_235" class="st2" d="M4.1,8.3C1.9,8.3,0,6.4,0,4.1C0,1.9,1.9,0,4.1,0c2.3,0,4.1,1.9,4.1,4.1l0,0
					C8.3,6.4,6.4,8.3,4.1,8.3z M4.1,1.4c-1.5,0-2.8,1.2-2.8,2.8c0,1.5,1.2,2.8,2.8,2.8c1.5,0,2.8-1.2,2.8-2.8c0,0,0,0,0,0
					C6.9,2.6,5.7,1.4,4.1,1.4L4.1,1.4z"/>
			</g>
			<g id="Grupo_146" transform="translate(11.426 2.717)">
				<path id="Trazado_236" class="st2" d="M2,1c0,0.6-0.4,1-1,1S0,1.5,0,1s0.4-1,1-1S2,0.4,2,1z"/>
			</g>
		</g>
	</g>
</g>
</svg>
