<?xml version="1.0" encoding="utf-8"?>
<!-- Generator: Adobe Illustrator 25.4.1, SVG Export Plug-In . SVG Version: 6.00 Build 0)  -->
<svg version="1.1" id="Capa_1" xmlns="http://www.w3.org/2000/svg" xmlns:xlink="http://www.w3.org/1999/xlink" x="0px" y="0px"
	 viewBox="0 0 973.7 166.7" style="enable-background:new 0 0 973.7 166.7;" xml:space="preserve">
<style type="text/css">
	.st0{fill:#5E5E5E;}
</style>
<g>
	<path class="st0" d="M102.7,57.1c0,0-12-2.3-20.9-0.5C69.2,59.2,58.9,70.3,58.2,84c-1.3,24.9,22.2,25.7,21.8,51.2
		c-0.2,13.2-10.7,28.7-29,30.2c-0.5,0-0.4,0.6-0.1,0.7c16.8,3.5,40.3-7.4,42.8-33c2.4-24.6-22-34.1-21.1-51.5
		c0.7-13.8,9.5-25,30.1-24.2C102.9,57.5,102.9,57.2,102.7,57.1z"/>
	<path class="st0" d="M43.2,80.9c0.2-0.9,0.2-1.3,0.8-4.9c2.3-14-14.2-23.1-14.2-23.1s17.6-5.4,18.8-24.6
		c1-16.6-17.9-39.2-48.5-22.4C0,6,0,6.1,0.1,6.2l0.1,0.1c0.1,0,0.1,0,0.2,0c18-9.7,38.1,4.4,36.7,23c-1.1,13.9-11.3,20-17,21.8
		c-0.2,0-0.1,0.2,0,0.3C24,53.2,34,60.5,31,76.2c-0.2,1-0.5,2.6-0.6,3.3C25.1,109.3,59,118.2,59,118.2S38.8,105.6,43.2,80.9z"/>
	<path class="st0" d="M929.8,86.9c0-1.8-0.3-3.3-0.9-4.5c-0.6-1.3-1.5-2.3-2.6-3.1s-2.5-1.4-4.1-1.8c-1.6-0.4-3.4-0.6-5.3-0.6h-11
		v36.2h5.1V97.2h5.7c1.9,0,3.6-0.2,5.2-0.6c1.6-0.4,3-1,4.2-1.8s2.1-1.9,2.8-3.2C929.4,90.3,929.8,88.8,929.8,86.9z M924,89.7
		c-0.4,0.7-1,1.4-1.7,1.8c-0.8,0.5-1.6,0.8-2.7,1c-1,0.2-2.2,0.3-3.4,0.3h-5.4V81.1h5.5c1.2,0,2.3,0.1,3.3,0.3s1.9,0.5,2.6,1
		s1.3,1.1,1.7,1.8c0.4,0.7,0.6,1.6,0.6,2.7C924.7,88,924.4,89,924,89.7z"/>
	<path class="st0" d="M884.3,95.6c-1-0.8-2.2-1.4-3.4-1.9c-1.3-0.5-2.5-0.9-3.7-1.3c-1-0.3-2-0.7-2.9-1s-1.7-0.7-2.4-1.2
		s-1.2-1-1.6-1.7c-0.4-0.7-0.6-1.5-0.6-2.5s0.2-1.9,0.6-2.6c0.4-0.7,1-1.3,1.7-1.8s1.4-0.9,2.3-1.1c0.8-0.2,1.7-0.3,2.5-0.3
		c1.5,0,2.9,0.3,4.1,0.9c1.2,0.6,2.2,1.4,2.9,2.4l3.6-3.5c-1.1-1.3-2.6-2.3-4.4-3c-1.8-0.7-3.8-1.1-5.9-1.1c-1.5,0-3,0.2-4.5,0.6
		c-1.5,0.4-2.8,1-4,1.9s-2.1,1.9-2.9,3.2c-0.7,1.3-1.1,2.8-1.1,4.7c0,1.7,0.3,3.1,0.8,4.2c0.5,1.1,1.3,2.1,2.1,2.8
		c0.9,0.8,1.9,1.4,3,1.9s2.3,0.9,3.4,1.3c1.2,0.4,2.3,0.7,3.3,1.1c1,0.4,1.9,0.8,2.7,1.3s1.4,1.1,1.9,1.9c0.5,0.7,0.7,1.6,0.7,2.7
		c0,1.1-0.2,2-0.7,2.8c-0.4,0.8-1,1.4-1.7,1.9s-1.5,0.9-2.3,1.1c-0.9,0.2-1.7,0.4-2.6,0.4c-1.7,0-3.2-0.4-4.7-1.2
		c-1.4-0.8-2.6-1.8-3.4-3.1l-3.9,3.3c1.4,1.7,3.2,3,5.3,3.9s4.3,1.3,6.6,1.3c1.6,0,3.2-0.2,4.7-0.7c1.5-0.4,2.9-1.1,4-2
		c1.2-0.9,2.1-2,2.8-3.4s1-3,1-4.9c0-1.8-0.3-3.3-1-4.5C886.1,97.3,885.3,96.4,884.3,95.6z"/>
	<path class="st0" d="M958.4,76.9h-4.6l-15.7,36.2h5.6l3.6-8.9h17.2l3.7,8.9h5.7L958.4,76.9z M949.1,99.7l6.8-17l6.7,17H949.1z"/>
	<path class="st0" d="M574.6,108.2c-1.7,0.8-3.5,1.2-5.6,1.2s-4-0.4-5.6-1.1c-1.7-0.7-3.1-1.8-4.3-3.1s-2.1-2.9-2.7-4.6
		c-0.6-1.8-0.9-3.7-0.9-5.7s0.3-3.8,1-5.6c0.6-1.8,1.6-3.3,2.8-4.6s2.6-2.4,4.3-3.1c1.7-0.8,3.6-1.2,5.7-1.2c1.9,0,3.6,0.4,5.2,1.2
		c1.6,0.8,2.9,1.8,3.8,3l4-3.1c-0.7-0.9-1.5-1.7-2.5-2.4s-2-1.3-3.2-1.8s-2.4-0.8-3.6-1.1c-1.3-0.2-2.5-0.4-3.7-0.4
		c-2.8,0-5.3,0.5-7.7,1.4s-4.4,2.2-6.1,3.9c-1.7,1.7-3.1,3.6-4,6c-1,2.3-1.5,4.9-1.5,7.7s0.5,5.4,1.4,7.7c1,2.3,2.3,4.3,4,6
		s3.7,3,6,3.9s4.9,1.4,7.6,1.4c3.2,0,5.9-0.6,8.2-1.8s4.1-2.8,5.6-4.7l-4-2.8C577.7,106.2,576.3,107.4,574.6,108.2z"/>
	<polygon class="st0" points="696.9,105.7 696.8,105.7 677.9,76.8 671.3,76.8 671.3,113 676.3,113 676.3,83.5 676.4,83.5 695.6,113 
		701.9,113 701.9,76.8 696.9,76.8 	"/>
	<polygon class="st0" points="607.5,76.8 602.4,76.8 602.4,113 623.6,113 623.6,108.5 607.5,108.5 	"/>
	<rect x="720.7" y="76.8" class="st0" width="5.1" height="36.2"/>
	<rect x="643" y="76.8" class="st0" width="5.1" height="36.2"/>
	<path class="st0" d="M767.4,108.2c-1.7,0.8-3.5,1.2-5.6,1.2s-4-0.4-5.6-1.1c-1.7-0.7-3.1-1.8-4.3-3.1s-2.1-2.9-2.7-4.6
		c-0.6-1.8-0.9-3.7-0.9-5.7s0.3-3.8,1-5.6c0.6-1.8,1.6-3.3,2.8-4.6s2.6-2.4,4.3-3.1c1.7-0.8,3.6-1.2,5.7-1.2c1.9,0,3.6,0.4,5.2,1.2
		c1.6,0.8,2.9,1.8,3.8,3l4-3.1c-0.7-0.9-1.5-1.7-2.5-2.4s-2-1.3-3.2-1.8s-2.4-0.8-3.6-1.1c-1.3-0.2-2.5-0.4-3.7-0.4
		c-2.8,0-5.3,0.5-7.7,1.4s-4.4,2.2-6.1,3.9c-1.7,1.7-3.1,3.6-4,6c-1,2.3-1.5,4.9-1.5,7.7s0.5,5.4,1.4,7.7c1,2.3,2.3,4.3,4,6
		s3.7,3,6,3.9s4.9,1.4,7.6,1.4c3.2,0,5.9-0.6,8.2-1.8s4.1-2.8,5.6-4.7l-4-2.8C770.4,106.2,769.1,107.4,767.4,108.2z"/>
	<polygon class="st0" points="302.5,105.8 302.4,105.8 283.5,76.8 276.9,76.8 276.9,113 282,113 282,83.5 282.1,83.5 301.2,113 
		307.6,113 307.6,76.8 302.5,76.8 	"/>
	<rect x="247.8" y="76.8" class="st0" width="5.1" height="36.2"/>
	<path class="st0" d="M173.7,108.1c-0.7,0.5-1.5,0.9-2.3,1.1c-0.9,0.2-1.7,0.4-2.6,0.4c-1.7,0-3.2-0.4-4.7-1.2
		c-1.4-0.8-2.6-1.8-3.4-3.1l-3.9,3.3c1.4,1.7,3.2,3,5.3,3.9c2.1,0.9,4.3,1.3,6.6,1.3c1.6,0,3.2-0.2,4.7-0.7c1.5-0.4,2.9-1.1,4-2
		c1.2-0.9,2.1-2,2.8-3.4c0.7-1.4,1-3,1-4.9c0-1.8-0.3-3.3-1-4.5c-0.6-1.2-1.5-2.2-2.5-2.9c-1-0.8-2.2-1.4-3.4-1.9
		c-1.3-0.5-2.5-0.9-3.7-1.3c-1-0.3-2-0.7-2.9-1s-1.7-0.7-2.4-1.2c-0.7-0.5-1.2-1-1.6-1.7s-0.6-1.5-0.6-2.5s0.2-1.9,0.6-2.6
		c0.4-0.7,1-1.3,1.7-1.8s1.4-0.9,2.3-1.1c0.8-0.2,1.7-0.3,2.5-0.3c1.5,0,2.9,0.3,4.1,0.9c1.2,0.6,2.2,1.4,2.9,2.4l3.6-3.5
		c-1.1-1.3-2.6-2.3-4.4-3s-3.8-1.1-5.9-1.1c-1.5,0-3,0.2-4.5,0.6c-1.5,0.4-2.8,1-4,1.9s-2.1,1.9-2.9,3.2c-0.7,1.3-1.1,2.8-1.1,4.7
		c0,1.7,0.3,3.1,0.8,4.2c0.5,1.1,1.3,2.1,2.1,2.8c0.9,0.8,1.9,1.4,3,1.9s2.3,0.9,3.4,1.3c1.2,0.4,2.3,0.7,3.3,1.1
		c1,0.4,2,0.8,2.7,1.3c0.8,0.5,1.4,1.1,1.9,1.9c0.5,0.7,0.7,1.6,0.7,2.7c0,1.1-0.2,2-0.7,2.8C175,107,174.4,107.6,173.7,108.1z"/>
	<path class="st0" d="M452.3,96.9h5.4l9.2,16.1h6.1l-10.1-16.6c2.6-0.4,4.7-1.5,6.3-3.1s2.5-3.8,2.5-6.4c0-1.8-0.3-3.4-1-4.7
		s-1.6-2.3-2.8-3.1s-2.5-1.4-4.1-1.7c-1.6-0.4-3.2-0.5-5-0.5h-11.6v36.2h5.1L452.3,96.9L452.3,96.9z M452.3,81.1h6.2
		c1.1,0,2.1,0.1,3.1,0.3s1.8,0.5,2.6,0.9c0.7,0.4,1.3,1,1.8,1.8c0.4,0.7,0.7,1.6,0.7,2.7c0,1.1-0.2,2-0.7,2.7
		c-0.4,0.7-1,1.3-1.8,1.8s-1.7,0.8-2.7,1s-2.1,0.3-3.3,0.3h-5.8L452.3,81.1L452.3,81.1z"/>
	<path class="st0" d="M369.5,108.2c-1.7,0.8-3.5,1.2-5.6,1.2s-4-0.4-5.6-1.1c-1.7-0.7-3.1-1.8-4.3-3.1c-1.2-1.3-2.1-2.9-2.7-4.6
		c-0.6-1.8-0.9-3.7-0.9-5.7s0.3-3.8,1-5.6c0.6-1.8,1.6-3.3,2.8-4.6c1.2-1.3,2.6-2.4,4.3-3.1c1.7-0.8,3.6-1.1,5.7-1.1
		c1.9,0,3.6,0.4,5.2,1.2s2.9,1.8,3.8,3l4-3.1c-0.7-0.9-1.5-1.7-2.5-2.4s-2-1.3-3.2-1.8s-2.4-0.8-3.6-1.1c-1.3-0.2-2.5-0.4-3.7-0.4
		c-2.8,0-5.3,0.5-7.7,1.4c-2.4,0.9-4.4,2.2-6.1,3.9s-3.1,3.6-4,6c-1,2.3-1.5,4.9-1.5,7.7s0.5,5.4,1.4,7.7c1,2.3,2.3,4.3,4,6
		s3.7,3,6,3.9s4.9,1.4,7.6,1.4c3.2,0,5.9-0.6,8.2-1.8c2.3-1.2,4.1-2.8,5.6-4.7l-4-2.8C372.5,106.2,371.1,107.4,369.5,108.2z"/>
	<path class="st0" d="M428.2,113l-15.5-36.2h-4.6L392.4,113h5.6l3.6-8.9h17.2l3.7,8.9H428.2z M403.4,99.7l6.8-17l6.7,17H403.4z"/>
	<polygon class="st0" points="517.1,108.5 498.2,108.5 498.2,96.5 515.2,96.5 515.2,92.1 498.2,92.1 498.2,81.3 516.3,81.3 
		516.3,76.8 493.1,76.8 493.1,113 517.1,113 	"/>
	<polygon class="st0" points="227.5,76.8 220.5,76.8 204.4,92.8 204.3,92.8 204.3,76.8 199.2,76.8 199.2,113 204.3,113 204.3,94.3 
		204.4,94.3 221.3,113 228.6,113 209.9,93.4 	"/>
	<circle class="st0" cx="818.2" cy="92.9" r="4.1"/>
</g>
</svg>
