<?xml version="1.0" encoding="utf-8"?>
<!-- Generator: Adobe Illustrator 25.4.1, SVG Export Plug-In . SVG Version: 6.00 Build 0)  -->
<svg version="1.1" id="Capa_1" xmlns="http://www.w3.org/2000/svg" xmlns:xlink="http://www.w3.org/1999/xlink" x="0px" y="0px"
	 viewBox="0 0 1000 470.8" style="enable-background:new 0 0 1000 470.8;" xml:space="preserve">
<style type="text/css">
	.st0{fill:none;stroke:#000000;stroke-width:3;stroke-linecap:round;stroke-linejoin:round;stroke-miterlimit:10;}
	.st1{fill:#191A1A;}
</style>
<g>
	<path d="M787,95.1c0.1,0,0.3,0,0.4,0.1C787.1,95.1,787,95.1,787,95.1"/>
	<g>
		<path d="M401.3,219.7H423v4.3h-17.2v10h16v4.3h-16V249h18v4.3h-22.6V219.7z"/>
		<path d="M435.1,219.7h6l18.5,27.7h0.1v-27.7h4.6v33.6h-5.8l-18.7-27.7h-0.1v27.7h-4.6V219.7z"/>
	</g>
	<line class="st0" x1="432.8" y1="32.4" x2="432.8" y2="201.9"/>
	<line class="st0" x1="432.8" y1="271.4" x2="432.8" y2="441"/>
	<g>
		<path d="M113.9,224.1c0,7.1-2.9,17.6-11.7,17.6c-8.7,0-11.7-10.5-11.7-17.6c0-7.1,2.9-17.6,11.7-17.6
			C110.9,206.5,113.9,217,113.9,224.1 M94.8,224.1c0,4.3,1.7,14.1,7.4,14.1c5.8,0,7.4-9.7,7.4-14.1c0-4.3-1.7-14.1-7.4-14.1
			C96.4,210.1,94.8,219.8,94.8,224.1"/>
		<path d="M128.7,249.6l-0.9-2.9c2.2-0.7,4.3-2,4.3-4.6v-34.7h4.2v35.1C136.2,246.7,132.3,248.7,128.7,249.6"/>
		<path d="M177.4,224.1c0,7.1-2.9,17.6-11.7,17.6c-8.7,0-11.7-10.5-11.7-17.6c0-7.1,2.9-17.6,11.7-17.6
			C174.5,206.5,177.4,217,177.4,224.1 M158.3,224.1c0,4.3,1.7,14.1,7.4,14.1c5.8,0,7.4-9.7,7.4-14.1c0-4.3-1.7-14.1-7.4-14.1
			C160,210.1,158.3,219.8,158.3,224.1"/>
		<path d="M275.8,224.2c0,8.2-3.3,16.7-12.8,16.7h-9.2v-33.6h9.7C273.2,207.3,275.8,216.1,275.8,224.2 M258.1,210.8v26.8h5
			c7.1,0,8.5-7.6,8.5-13.2c0-5.5-1-13.5-8.2-13.5H258.1z"/>
		<polygon points="310.9,210.9 297.9,210.9 297.9,221.6 307.9,221.6 307.9,225.3 297.9,225.3 297.9,237.2 311.5,237.2 311.5,240.9 
			293.7,240.9 293.7,207.3 310.9,207.3 		"/>
		<path d="M153.9,291.5l-3.6-10.8h-10l-3.6,10.8h-4.4L143,258h4.6l10.7,33.6H153.9z M141.3,277.2h8l-4-14.8L141.3,277.2z"/>
		<path d="M185.5,292.3c-9.8,0-13.1-9.3-13.1-17.6c0-7.8,3.8-17.6,13.1-17.6c3.5,0,5.6,0.7,8.7,2.3l-1.7,2.8c-2.1-1.3-4.6-1.8-7-1.8
			c-6.1,0-8.8,8.8-8.8,14.5c0,5.6,1.8,14,8.9,14c1.4,0,3.4-0.2,4.7-0.7v-11h3.9v13.7C191.8,292,188.1,292.3,185.5,292.3"/>
		<path d="M223,292.3c-7.9,0-10.7-6.7-10.7-13.9V258h4.3v20.6c0,4.3,0.9,10.3,6.4,10.3c5.6,0,6.4-6,6.4-10.3V258h4.3v20.7
			C233.7,285.7,231,292.3,223,292.3"/>
		<path d="M270.7,291.5l-3.6-10.8h-10l-3.6,10.8h-4.4l10.7-33.6h4.6l10.7,33.6H270.7z M258.1,277.2h8l-4-14.8L258.1,277.2z"/>
		<path d="M292.5,347.5l-2,1.2C290.7,348.8,291.2,348.5,292.5,347.5"/>
		<path d="M210.3,368c0,0,0.1,0,0.1,0c0.2,0,0.4-0.1,0.5-0.1L210.3,368z"/>
		<path d="M305.1,322c-9.4,10.7-16.8,16.1-24.3,21.2c-1.9,1.3-3.8,2.5-5.8,3.7c-1,0.6-2,1.2-3.1,1.9c-1.1,0.6-2.2,1.2-3.3,1.9
			c-2.3,1.3-4.8,2.5-7.5,4c-2.8,1.3-5.7,2.8-9.2,4.1c-6.5,2.5-13.4,4.7-20.4,6.2c-7,1.6-14.1,2.6-21,3c-1.6,0.3-3.6,0.5-5.7,0.6
			c-2.1,0.1-4.4,0-6.8-0.1c-2.3-0.1-4.7-0.4-7-0.5c-2.3-0.2-4.4-0.4-6.4-0.4c0,0-0.7-0.2-1.4-0.5c-0.7-0.3-1.4-0.6-1.4-0.6
			c-1.3-0.1-2.8-0.2-4.2-0.4c-1.4-0.3-2.8-0.6-4.1-1.1l0.2-0.1c-2-0.2-4-0.7-5.8-1.2c-1.8-0.5-3.4-0.9-4.3-1.2l0.2-0.1l-4.6-1.5
			l0.9,0c-6.7-1.8-13.3-4.8-18.7-8l0.1,0.9c-5.7-3.7-9.7-6-13.5-8.4c-1.9-1.2-3.7-2.4-5.6-3.9c-0.9-0.7-1.9-1.5-2.9-2.4
			c-1-0.9-2-1.9-3.1-3l0.3,0c-6.4-4.4-10.5-9.1-14.2-14.1c-3.7-5-7.1-10.1-12.1-16.4c1.3,1.6-0.1-0.9,0.2-0.9
			c-4-6.1-7.3-13.3-8.7-12.8c-1.1-2.5-1.4-3.5-1.4-4.1c0-0.6,0.3-0.6,0.4-1c-0.6,0.3-2.7-3.9-4-8l0.9,1.8c0,0-0.3-0.7-0.6-1.8
			c-0.4-1.1-0.9-2.5-1.3-3.9c-0.4-1.4-0.9-2.9-1.2-4c-0.2-0.5-0.3-1-0.4-1.3c-0.1-0.3-0.1-0.5-0.1-0.5s-0.2,0.7-0.3,1.3
			c-0.1,0.6-0.3,1.3-0.3,1.3c-1.2-6.4,1.1-2-0.6-7.9l-1,0.3c-0.4-2.2-0.6-4.2-0.7-6.1c-0.1-1.9-0.1-3.7,0-5.4c0-1.7,0.1-3.5,0.3-5.3
			c0.1-1.8,0.2-3.8,0.4-5.9c-0.4-17.6,2-36.1,8.3-53.1c6.2-17,16.2-32.4,28.3-43.6l1.6-0.5c0.6,0.2,1.9-1.7,3.3-3.6
			c1.4-2,2.9-3.9,3.8-3.9l2.6-2.9c1-0.5,2.9-1.7,1.6-0.4c2.8-2.1,2.7-2.4,4.6-4.1l3.5-1.6c5.9-3.7,11.3-7.1,17.1-10.2
			c5.8-3,11.9-5.8,18.9-7.8c8.6-1.9,21-4.5,33.9-5.2c6.4-0.5,12.9-0.2,19,0.1c3,0.3,6,0.5,8.7,0.9c1.4,0.2,2.7,0.4,4,0.6
			c1.3,0.2,2.5,0.5,3.7,0.7c13.4,2.1,27.1,8.5,39.2,16.7c12.2,8.3,22.7,18.5,32.2,28.4c0.5,0.8,2.2,2.4,2.3,2.3c0,0,1,1.2,2.4,3.1
			c0.7,1,1.5,2.1,2.3,3.3c0.4,0.6,0.9,1.2,1.3,1.9c0.4,0.7,0.8,1.3,1.3,2c0.8,1.3,1.7,2.7,2.5,3.9c0.7,1.3,1.4,2.5,2,3.5
			c0.6,1,1.1,1.9,1.4,2.5c0.3,0.6,0.5,1,0.5,1s0.2,0.4,0.6,1.2c0.4,0.8,1,1.9,1.7,3.3c0.7,1.4,1.4,3.2,2.3,5.1
			c0.8,2,1.7,4.1,2.6,6.5c1.7,4.7,3.5,10,4.8,15.4c1.4,5.4,2.4,10.8,3.2,15.5c0.7,4.7,1.3,8.8,1.8,11.4c0.5,2.7,1.1,3.9,1.7,3.1
			c0.3-0.4,0.6-1.3,1-2.9c0.3-1.6,0.8-3.8,1-6.7c0.1-1.5,0.2-3.1,0.3-4.9c0-1.8,0-3.9,0-6.1c-0.1-2.2-0.3-4.7-0.5-7.3
			c-0.3-2.6-0.6-5.5-1.1-8.6l0.4,0.6c-0.9-3.6-1.6-6.9-2.6-9.8c-0.9-3-1.9-5.7-3-8.2c-1-2.5-2.2-4.8-3.4-7.1c-1.2-2.2-2.6-4.3-4-6.4
			c0.3-1.1-1.2-3.7-2.9-6.5c-1.9-2.7-3.9-5.6-4.7-7.1l0.3,0.2c-3.1-3.4-5.7-7.2-8.4-10.9c-2.8-3.7-5.7-7.2-9.2-9.9
			c0.3,0.2,0.8-0.1,2.2,1.4c-4.6-4.4-11.4-9.8-11.2-10.7c-5.9-4.8-13.5-10-20.9-14c-7.4-4-14.7-6.9-19.4-7.9l0.7,0
			c-2.7-0.6-4.5-1-6.2-1.7c-0.9-0.3-1.8-0.6-2.8-1c-1.1-0.3-2.3-0.6-3.8-0.9c-0.3-0.2-0.7-0.4-0.6-0.4c-1.5-0.2-3.3-0.5-5.3-0.9
			c-2-0.4-4-0.9-6.1-1.2c-4.1-0.9-8.2-1.4-10.6-1.5l-0.3-0.6c0,0-0.7-0.1-1.9-0.2c-1.1-0.1-2.6-0.2-4.1-0.3c-1.5-0.1-3-0.2-4.1-0.2
			c-1.1,0-1.9,0-1.9,0s1.1,0.1,2.2,0.1c0.6,0,1.1,0.1,1.5,0.1c0.4,0,0.7,0.1,0.7,0.1c-0.8,0.7-3,0.5-6.2,0.1
			c-1.6-0.2-3.4-0.3-5.3-0.4c-1.9,0-4,0-6.2,0.5c-4,0.1-8,1.5-12,2.8c-2,0.7-3.9,1.5-5.9,2c-2,0.6-3.9,1.2-6,1.5
			c-3.6,1.7,3.1-2.1-2.5,0c-0.4-0.8,2.5-1.2,0.9-1.5c-5.5,2-9.5,1.8-16.1,4.9l-0.5-0.5c-1,0.6-2.1,1.1-3.1,1.6c-1,0.5-2,1-3,1.5
			c-1,0.5-2,0.9-3,1.3c-1,0.4-1.9,0.9-2.9,1.3c-3.8,1.6-7,3.3-9.5,5.4c-4,2.9-5.6,3.3-7.2,4c-0.8,0.3-1.6,0.7-2.7,1.4
			c-0.5,0.4-1.1,0.8-1.9,1.4c-0.7,0.6-1.5,1.3-2.4,2.3c0,0-0.9,0.4-1.8,0.9c-0.9,0.4-1.8,0.9-1.8,0.9c-3.4,2.8-1.7,2.8-5.6,5.8
			c-0.2-0.6-4.8,3.9-3.1,1.6c-2.2,1.7-4.1,3.8-6,5.9c-1.8,2.2-3.7,4.4-5.5,6.9c-3.6,4.8-7.2,10.2-11.7,16c-0.3,1.7-1.5,4-2.7,6.2
			c-1.1,2.3-2.1,4.4-2.3,5.7c-0.4,0-1.8,3.4-3,5.7c-0.6,1.2-1,2.1-1.2,2.2c-0.2,0.1-0.1-0.6,0.5-2.5c0.2-0.7,0.7-1.8,0.9-1.7
			l-0.2-1.2c-4.6,7.1-5.2,14.3-7.5,22.1c0.9-2.3,1.7-5.4,1.5-3.2c0,0-0.5,1.8-1.1,3.6c-0.3,0.9-0.5,1.8-0.7,2.5
			c-0.2,0.7-0.3,1.2-0.3,1.2l-0.2-1.7c0,0-0.7,2.8-1.4,5.5c-0.4,1.4-0.6,2.8-0.8,3.8c-0.2,1-0.4,1.7-0.4,1.7l0.9-1.4
			c-0.3,1.4-0.7,2.5-1,3.5c-0.3,1-0.5,2-0.8,2.9c-0.4,1.9-0.8,4-0.5,7.2c0.3,2.9,1.3-5.2,1.1,0.7c-0.2,1.8-0.6,3.9-0.7,6.1
			c-0.2,2.2-0.5,4.6-0.5,7.1c-0.2,4.9-0.1,10.1,0.4,14.8c0.6-1,0.9,1.6,1.4,4.1l-0.6,0.4c1.3,4.9,1.1,5.9,0.9,6.8
			c-0.2,1-0.4,2,1.1,6.8l-0.6-0.8c0,0,0.5,0.6,1,1.1c0.5,0.6,1,1.1,1,1.1c3.7,8.3-0.1,5.2,4.9,14.1c-1.5-3.7,0.7-2.2,2.2,2.4l-1-0.9
			c1.1,2.4,1.7,3.2,2.3,4.9c-1-1.3-1.2-0.4,0.5,3.2l-1.8-2.1c0,0,1,1.6,2.1,3.2c0.5,0.8,1.1,1.6,1.5,2.1c0.4,0.6,0.7,1,0.7,1
			c0.5,1.4,1.2,2.9,2,4.4c0.8,1.5,1.7,3,2.5,4.4c1.7,2.8,3.3,5.2,3.6,6.5c0,0,0.4,0.7,1.1,1.7c0.7,1,1.6,2.4,2.6,3.8
			c2.1,2.8,4.6,5.7,5.9,6.5c-2.1-1.5,2.2,3.9,0.4,2.8c2.5,2.1,9.6,8.5,12,11.6l-0.6-0.4c5,5.1,9.9,8.7,14.8,11.9
			c4.9,3.3,9.9,6,15.2,9.5c-0.2-0.9,5.6,2.5,4.6,0.9c1.5,0.6,3,1.3,4.4,1.9c1.4,0.6,2.8,1.3,4.1,1.9c2.7,1.1,5.1,2.4,7.4,3.3
			c2.3,0.9,4.3,1.7,6.2,2c1.8,0.4,3.5,0.4,4.8,0c2.9,0.7,4.5,1.2,5.8,1.7c1.3,0.5,2.3,1,3.8,1.3l-1.4-0.1c2.7,0.4,5,0.8,7,1.1
			c2,0.2,3.7,0.4,5.3,0.6c1.6,0.2,3.1,0.3,4.7,0.4c1.6,0.1,3.4,0.3,5.4,0.4c4.1-0.2,4.8-1.5,12.1-1.4c-2.3,0.6,0.6,0.5,3.4,0.3
			c-1.7,0.2-2.3,0.5,1.4,0.6c0.5-0.2,1.3-0.4,2-0.5c0,0,0.2,0.1,0.1,0.1c4.6-0.6,3.7-0.8,1.6-0.6c0.1-0.1-0.1-0.2-0.8-0.3
			c2.4,0.1,5.7-0.3,8.4-0.7c2.8-0.5,5-0.8,5.4-0.4c6.7-1.5,12.4-3.3,17.6-5.5c1.3-0.5,2.6-1,3.9-1.6c1.2-0.6,2.5-1.2,3.7-1.7
			c2.5-1.1,4.9-2.4,7.5-3.7c1.4-0.1-0.9,1.4-3.8,3c0,0,1.8-0.9,3.7-1.8c0.9-0.4,1.8-0.9,2.5-1.3c0.7-0.4,1.1-0.6,1.1-0.6
			c0.1,0.3-0.9,1-2.2,1.7c-1.3,0.6-3,1.3-4.1,1.9c2.3-0.7,4.6-1.7,6.8-2.9c1.1-0.6,2.2-1.2,3.3-1.8c1.1-0.7,2.2-1.4,3.3-2.1
			c4.4-2.8,8.7-6.1,13.6-9c0,0,0.4-0.5,0.8-0.9c0.4-0.5,0.8-0.9,0.8-0.9l0.6-0.3c-0.2-0.2,1.5-2.1,2.8-3.2c1.6-0.6,0.8,1.2,5.1-2.5
			c1.9-1.2,4.1-3.5,6.4-6c2.2-2.6,4.4-5.3,6.1-7.6c-2.1,2.3-1.7,1.3-1,0.1c1.8-2.1,3.4-2.9,4.5-4.8l0.8,0.3
			c-0.6,0.2,0.3-1.4,1.5-3.1c1.1-1.8,2.4-3.8,2.6-4.3c1.4-0.9-2,3.9-2.1,4.7c3.3-4.6,4.1-5.7,4.8-6.9c0.4-0.6,0.8-1.2,1.4-2.2
			c0.6-1,1.7-2.5,3-5c2.4-5.5-1.2,0.5-0.4-2.3c2.5-4.6,4.2-9.5,7-14.8c0,0-0.4,0.4-0.7,0.7c-0.4,0.4-0.7,0.7-0.7,0.7
			c3.3-9.2,5-14.8,7.5-20.9c1.5-9,1.7-16.1,1.6-21.5c-0.1-2.7-0.2-4.9-0.4-6.8c-0.2-1.9-0.5-3.4-0.7-4.6c-1-4.8-1.9-4.4-2.5-1.8
			c-0.7,2.5-1.2,7.2-1.9,11.2c-0.3,2-0.6,3.8-0.9,5.1c-0.2,1.3-0.4,2.2-0.4,2.2c-1.4,6.6-2.8,12.4-4.4,17.7
			c-1.5,5.4-3.3,10.3-5.2,15.4C320.1,298.6,315.2,309.3,305.1,322"/>
		<path d="M243.9,204.4c-6.9-6.7-18.1-0.6-23.6,8c-6.3,10-5.3,29.4-3.7,30c1.6,1.2-2.6-12.6,8.2-19.4c7.3-4.5,15.4-0.6,20.1-6.5
			C247.8,212.8,246.8,207.2,243.9,204.4 M244.7,215.6c0.3-2.8-0.7-5.8-2.4-7.5c-6.3-6.1-16.7-0.6-21.7,7.3c-1.6,2.5-2.7,5.1-3.4,7.7
			c0.6-3.3,1.8-6.9,4-10.3c5-7.9,15.4-13.5,21.7-7.4C245.2,207.7,246.1,212.2,244.7,215.6"/>
		<path d="M208.6,212.4c-5.5-8.6-16.7-14.7-23.6-8c-2.9,2.8-3.9,8.4-1.1,12c4.7,6,12.9,2,20.1,6.5c10.9,6.8,6.6,20.6,8.2,19.4
			C213.9,241.8,214.9,222.4,208.6,212.4 M208.4,215.4c-5-7.9-15.4-13.5-21.7-7.3c-1.8,1.7-2.7,4.7-2.4,7.5
			c-1.4-3.4-0.5-7.9,1.8-10.1c6.3-6.1,16.7-0.6,21.7,7.4c2.1,3.3,3.3,7,4,10.3C211.1,220.6,210,217.9,208.4,215.4"/>
		<path d="M233.1,194c-0.8-3.2-4.3-3.8-7-2.9c-3,1-5.1,3.6-6.2,6.4c-1.8,4.7-2.4,9-2.3,9.9c1,0.3,0.6-1.6,4.4-4.5
			c2.5-1.9,4-1.6,7.3-2.9C231.8,199.1,233.9,197,233.1,194 M232.6,195.8c0-0.1,0-0.1,0-0.2c-0.5-2.8-3.4-3.5-5.8-2.9
			c-2.6,0.7-4.5,2.7-5.7,5c-1.4,2.9-2.2,5.8-2.5,7.3c0,0-0.1,0-0.1,0c0-0.8,0.8-4.5,2.6-8.3c1.1-2.3,3-4.4,5.7-5
			c2.4-0.6,5.3,0.1,5.8,2.9C232.7,195,232.7,195.4,232.6,195.8"/>
		<path d="M216.5,182c-2.3,0-4.3,2.2-4.2,4.9c0.2,3.9,3,5.5,3.7,7.9c0.2,0.7,0.2,1.4,0.5,1.4c0.5-0.1,0.4-0.8,0.6-1.5
			c0.8-2.9,3.4-4,3.5-7.9C220.7,184.2,218.8,182,216.5,182 M216,183.8c-1.2,0-2.3,0.7-3,1.8c0.5-1.6,1.8-2.7,3.3-2.7
			c1.9,0,3.6,1.8,3.5,4.1c0,1.1-0.3,1.9-0.7,2.6c0.2-0.5,0.3-1.1,0.3-1.7C219.5,185.6,217.9,183.8,216,183.8"/>
		<path d="M215.3,204.8c-1-6.4-3-11.4-8.2-15.5c-3-2.3-11.5-4.9-14,1.3c-2.5,6.4,6.5,10.5,11,13c6.4,3.6,9.9,10.3,9.7,13.5
			c-0.1,1,0.6,0.7,0.6,0.7C215.7,217.5,216.1,209.9,215.3,204.8 M214.2,214.8C214.2,214.8,214.2,214.8,214.2,214.8
			c0.3-2.2,0.1-6.9-0.7-10.3c-1.3-5.7-3.3-10.1-8.1-13.4c-2.5-1.7-8.9-3.3-11.6,0.3c2-5.3,9.6-3.5,12.3-1.6
			c4.9,3.4,6.9,7.8,8.1,13.5C215.3,207.8,215.4,214.5,214.2,214.8"/>
	</g>
	<g>
		<g>
			<g>
				<path d="M720.8,116.4c0.1-0.8,0.1-1.1,0.6-4.1c1.9-11.7-11.8-19.3-11.8-19.3s14.6-4.5,15.6-20.5c0.9-13.8-14.8-32.7-40.3-18.7
					c-0.1,0-0.1,0.2,0,0.2c0,0,0.1,0.1,0.1,0.1c0,0,0.1,0,0.1,0c15-8.1,31.7,3.7,30.5,19.2c-0.9,11.6-9.4,16.7-14.1,18.2
					c-0.1,0-0.1,0.2,0,0.3c3.2,1.5,11.5,7.6,9.1,20.7c-0.2,0.9-0.4,2.2-0.5,2.7c-4.4,24.9,23.8,32.3,23.8,32.3
					S717.2,137,720.8,116.4z"/>
				<path d="M770.2,96.5c0,0-9.9-1.9-17.4-0.4c-10.5,2.2-19,11.4-19.6,22.9c-1.1,20.8,18.4,21.5,18.1,42.8c-0.1,11-8.9,24-24.1,25.3
					c-0.4,0-0.4,0.5-0.1,0.6c14,2.9,33.4-6.2,35.5-27.6c2-20.6-18.3-28.5-17.5-43c0.6-11.5,7.9-20.8,25-20.2
					C770.4,96.8,770.4,96.6,770.2,96.5z"/>
			</g>
			<g>
				<g>
					<path d="M624.9,288.1v-16.3c0,3.7-4.1,8.2-8.7,8.2C620.8,279.9,624.9,284.4,624.9,288.1z"/>
					<path d="M634.9,295.3c-0.8,3.8-5.5,8.6-10.4,10.9c-1.2,0.6-2.5,0.9-3.9,0.9h-15.8c2.4-1.1,4.1-3.5,4.1-6.3v-38.5
						c0-2.8-1.7-5.2-4.2-6.3l15,0c2.1,0,4.2,0.7,5.9,2c3.2,2.6,5.6,6.5,6.3,9.7V257c0-0.9-0.8-1.7-1.7-1.7h-39.5
						c0,0,7.9,1.7,7.8,8.7V299c0,4.5-7.8,8.7-7.8,8.7h42.4c0.9,0,1.7-0.8,1.7-1.7V295.3z"/>
				</g>
				<g>
					<path d="M791.7,288.1v-16.3c0,3.7-4.1,8.2-8.7,8.2C787.6,279.9,791.7,284.4,791.7,288.1z"/>
					<path d="M801.7,295.3c-0.8,3.8-5.5,8.5-10.3,10.9c-1.2,0.6-2.5,0.9-3.9,0.9h-15.9c2.4-1.1,4.1-3.4,4.1-6.3v-38.5
						c0-2.8-1.7-5.2-4.2-6.3l15,0c2.1,0,4.2,0.7,5.8,2c3.2,2.6,5.7,6.6,6.4,9.8V257c0-0.9-0.8-1.7-1.7-1.7h-39.5
						c0,0,7.9,1.7,7.8,8.7V299c0,4.5-7.8,8.7-7.8,8.7l9.5,0l32.9,0c0.9,0,1.7-0.8,1.7-1.7V295.3z"/>
				</g>
				<path d="M590.3,325.5c-6.1-1.9-9-7.7-10.7-11.3c-4.4-9.3-1.7-16.2-5.6-22.4c-2.6-4.1-5.6-5.4-7.4-5.9c-0.3-0.1-0.3-0.5,0-0.5
					c8.8-2,12.5-7.4,12.5-14.6c0-10-7.4-15.5-19.2-15.5H535c0,0,7.9,1.7,7.8,8.7V299c0,4.5-7.8,8.7-7.8,8.7h11.2
					c3.8,0,6.9-3.1,6.9-6.9v-38.5c0-2.8-1.6-5.2-4-6.3l7.4,0c2.4,0,5.2,0.8,6.9,2.5c2.5,2.4,5,6.4,5,12.3c0,9.1-7.7,13.6-9.6,14.7
					c-0.2,0.1-0.2,0.4,0,0.5c8.2,4.7,4.6,18.8,11.4,29.9c6.2,10.1,14.6,10,19.8,10.2C590.6,326,590.6,325.6,590.3,325.5z"/>
				<path d="M844,285.9c-0.3,0-0.3-0.4,0-0.5c8.8-2,12.6-7.4,12.6-14.6c0-8.9-6.1-15.5-19.7-15.5l-24.5,0c0,0,7.9,1.7,7.8,8.7V299
					c0,4.5-7.8,8.7-7.8,8.7h11.2c3.8,0,6.9-3.1,6.9-6.9v-38.5c0-2.8-1.7-5.2-4.2-6.3l7.5,0c2.4,0,5.5,0.8,7.3,2.5
					c2.5,2.5,5.1,6.4,5.1,12.3c0,8.9-7.7,13.5-9.9,14.6c-0.2,0.1-0.2,0.3,0,0.5c9.7,6.1,3.6,23.5,18.5,23.5c5.5,0,8.4-2.7,8.4-2.7
					C852.4,307.7,856.1,288.1,844,285.9z"/>
				<path d="M749.6,255.3l-17.7,0c3.5,1.8,5.3,5.1,5.6,10.5c0.1,1.2-0.1,2.7-0.7,4.5l-9.4,32c-0.7,1.9-1.4,4.1-3.3,4.1
					c-1.7,0-2.1-1.1-3.1-4.5l-10.6-36.2c-1.8-6.7-7.9-11.5-15-11.5h-7.3c0,0,8.9,2.1,11,9.4l12.1,38.3c2,6,6.3,6.3,10.3,6.3
					c4.8,0,5.6-3.3,6.5-5.8l9.5-32.3c0.4-1.3,1.2-3.2,1.8-4.4C740.9,262.5,744.5,257.6,749.6,255.3z"/>
				<path d="M933.1,325.5c0,0-8.8-3.5-12.1-14.6l-15.1-50c-2-6-6.3-6.3-10.3-6.3c-4.8,0-5.6,3.3-6.5,5.8l-9.5,32.3
					c-0.4,1.3-1.2,3.2-1.8,4.4c-1.6,3.4-5.2,8.3-10.3,10.6l17.7,0c-3.5-1.8-5.3-5.1-5.6-10.5c-0.1-1.2,0.1-2.7,0.7-4.5l9.4-32
					c0.9-2.4,1.5-4.3,3.4-4.3c0.7,0,1.8,0.1,2.5,2.5l14.5,50.1c3.3,9.6,12.4,16.9,22.9,16.9C933.1,325.8,933.2,325.6,933.1,325.5z"
					/>
				<path d="M684.2,294.7c0-17.8-32.2-17.8-32.2-30.5c0-4.3,4.3-8.2,12.8-8.2c0.6,0,1.2,0,1.8,0.1c1.3,0.1,2.6,0.8,3.3,2
					c1.7,2.6,1,6.1,1,7.2c0,2.9,2.3,5.2,5.2,5.2c2.8,0,5.1-2.3,5.1-5.2c0-9.5-11.7-9.9-16.3-9.9c-13.4,0-15.9,8.1-15.8,15.5
					c0.2,17,29.8,18.6,29.8,29.4c0,0.6-0.1,1.2-0.4,1.8c-0.9,2.5-3.2,4.3-5.7,5c-2,0.5-4.1,0.8-6.3,0.8c-2.1,0-4.1-0.3-6-0.8
					c-1.3-0.3-2.6-1-3.6-1.9c-5.3-4.5-9.1-12.8-9.1-12.8l0.1,15.3c2-3.3,6.9-0.8,11.9,0.1c2.3,0.4,4.8,0.7,6.8,0.7
					c5.7,0,10.4-2.3,10.7-2.4c0,0,0,0,0,0c0,0,0,0,0,0C680,304.8,684.2,301.6,684.2,294.7z"/>
			</g>
		</g>
		<g>
			<path d="M536.5,386.6c0.4,0.6,0.9,1,1.5,1.3c0.6,0.3,1.3,0.4,1.9,0.4c0.4,0,0.7-0.1,1.1-0.2c0.4-0.1,0.7-0.3,1-0.5
				c0.3-0.2,0.6-0.5,0.8-0.9c0.2-0.3,0.3-0.7,0.3-1.2c0-0.6-0.2-1.1-0.6-1.4c-0.4-0.3-0.9-0.6-1.5-0.8c-0.6-0.2-1.2-0.4-1.9-0.6
				c-0.7-0.2-1.3-0.5-1.9-0.9c-0.6-0.4-1.1-0.9-1.5-1.5s-0.6-1.5-0.6-2.5c0-0.5,0.1-1,0.3-1.5c0.2-0.5,0.5-1,1-1.5
				c0.4-0.4,1-0.8,1.7-1.1c0.7-0.3,1.5-0.4,2.5-0.4c0.9,0,1.7,0.1,2.6,0.4c0.8,0.2,1.5,0.7,2.1,1.5l-1.8,1.6c-0.3-0.4-0.7-0.8-1.2-1
				c-0.5-0.3-1.1-0.4-1.7-0.4c-0.6,0-1.1,0.1-1.5,0.2c-0.4,0.2-0.7,0.4-1,0.6s-0.4,0.5-0.5,0.8c-0.1,0.3-0.1,0.6-0.1,0.8
				c0,0.7,0.2,1.2,0.6,1.6c0.4,0.4,0.9,0.7,1.5,0.9c0.6,0.2,1.2,0.4,1.9,0.6c0.7,0.2,1.3,0.4,1.9,0.8c0.6,0.3,1.1,0.8,1.5,1.3
				c0.4,0.6,0.6,1.3,0.6,2.3c0,0.8-0.1,1.5-0.4,2.1c-0.3,0.6-0.7,1.2-1.2,1.6c-0.5,0.4-1.1,0.8-1.8,1c-0.7,0.2-1.4,0.3-2.2,0.3
				c-1,0-2-0.2-3-0.6c-0.9-0.4-1.7-0.9-2.2-1.7L536.5,386.6z"/>
			<path d="M555.5,373.8h2.2v7h0.2l7.2-7h3.1l-7.9,7.5l8.4,8.8h-3.2l-7.6-8.1h-0.2v8.1h-2.2V373.8z"/>
			<path d="M577.4,373.8h2.2V390h-2.2V373.8z"/>
			<path d="M590.4,373.8h2.9l9,13.4h0v-13.4h2.2V390h-2.8l-9.1-13.4h0V390h-2.2V373.8z"/>
			<path d="M640.3,377.3c-0.5-0.6-1-1.1-1.7-1.4c-0.7-0.3-1.4-0.5-2.2-0.5c-0.9,0-1.8,0.2-2.5,0.5c-0.7,0.3-1.4,0.8-1.9,1.4
				c-0.5,0.6-0.9,1.3-1.2,2.1c-0.3,0.8-0.4,1.7-0.4,2.6c0,0.9,0.1,1.7,0.4,2.4c0.3,0.8,0.7,1.4,1.2,2c0.5,0.6,1.2,1,1.9,1.4
				c0.8,0.3,1.6,0.5,2.6,0.5c0.9,0,1.8-0.2,2.5-0.6c0.7-0.4,1.3-0.9,1.8-1.6l1.9,1.4c-0.1,0.2-0.3,0.4-0.6,0.7
				c-0.3,0.3-0.7,0.6-1.2,0.9c-0.5,0.3-1.1,0.6-1.8,0.8c-0.7,0.2-1.5,0.4-2.5,0.4c-1.3,0-2.4-0.2-3.5-0.7c-1-0.5-1.9-1.1-2.6-1.9
				c-0.7-0.8-1.3-1.7-1.7-2.7s-0.6-2-0.6-3c0-1.3,0.2-2.4,0.6-3.5c0.4-1.1,1-2,1.7-2.8c0.7-0.8,1.6-1.4,2.7-1.8
				c1-0.4,2.2-0.6,3.4-0.6c1.1,0,2.1,0.2,3.2,0.6c1,0.4,1.9,1,2.5,1.9L640.3,377.3z"/>
			<path d="M657.4,373.8h2l7,16.3h-2.6l-1.6-4h-7.7l-1.6,4h-2.6L657.4,373.8z M661.4,384.1l-3-7.5h0l-3.1,7.5H661.4z"/>
			<path d="M675.3,373.8h5.7c1,0,1.9,0.1,2.6,0.4c0.7,0.3,1.2,0.6,1.6,1.1c0.4,0.4,0.7,0.9,0.8,1.5c0.2,0.5,0.2,1.1,0.2,1.6
				c0,0.5-0.1,1-0.3,1.5c-0.2,0.5-0.4,0.9-0.8,1.3c-0.3,0.4-0.8,0.7-1.3,1c-0.5,0.3-1.1,0.4-1.7,0.5l4.6,7.4h-2.8l-4.1-7.2h-2.5v7.2
				h-2.2V373.8z M677.5,380.9h2.9c0.4,0,0.9,0,1.3-0.1c0.4-0.1,0.8-0.2,1.1-0.4c0.3-0.2,0.6-0.4,0.8-0.8c0.2-0.3,0.3-0.8,0.3-1.3
				s-0.1-1-0.3-1.3c-0.2-0.3-0.5-0.6-0.8-0.8c-0.3-0.2-0.7-0.3-1.1-0.4c-0.4-0.1-0.8-0.1-1.3-0.1h-2.9V380.9z"/>
			<path d="M696.1,373.8h10.5v2.1h-8.3v4.8h7.7v2.1h-7.7v5.2h8.7v2.1h-10.9V373.8z"/>
			<path d="M741.8,377.3c-0.5-0.6-1-1.1-1.7-1.4c-0.7-0.3-1.4-0.5-2.2-0.5c-0.9,0-1.8,0.2-2.5,0.5c-0.7,0.3-1.4,0.8-1.9,1.4
				c-0.5,0.6-0.9,1.3-1.2,2.1c-0.3,0.8-0.4,1.7-0.4,2.6c0,0.9,0.1,1.7,0.4,2.4c0.3,0.8,0.7,1.4,1.2,2c0.5,0.6,1.2,1,1.9,1.4
				c0.8,0.3,1.6,0.5,2.6,0.5c0.9,0,1.8-0.2,2.5-0.6c0.7-0.4,1.3-0.9,1.8-1.6l1.9,1.4c-0.1,0.2-0.3,0.4-0.6,0.7
				c-0.3,0.3-0.7,0.6-1.2,0.9c-0.5,0.3-1.1,0.6-1.8,0.8c-0.7,0.2-1.5,0.4-2.5,0.4c-1.3,0-2.4-0.2-3.5-0.7c-1-0.5-1.9-1.1-2.6-1.9
				c-0.7-0.8-1.3-1.7-1.7-2.7s-0.6-2-0.6-3c0-1.3,0.2-2.4,0.6-3.5c0.4-1.1,1-2,1.7-2.8c0.7-0.8,1.6-1.4,2.7-1.8
				c1-0.4,2.2-0.6,3.4-0.6c1.1,0,2.1,0.2,3.2,0.6c1,0.4,1.9,1,2.5,1.9L741.8,377.3z"/>
			<path d="M753.2,373.8h2.2V388h7.5v2.1h-9.7V373.8z"/>
			<path d="M771.8,373.8h2.2V390h-2.2V373.8z"/>
			<path d="M784.9,373.8h2.9l9,13.4h0v-13.4h2.2V390h-2.8l-9.1-13.4h0V390h-2.2V373.8z"/>
			<path d="M809.8,373.8h2.2V390h-2.2V373.8z"/>
			<path d="M834.3,377.3c-0.5-0.6-1-1.1-1.7-1.4c-0.7-0.3-1.4-0.5-2.2-0.5c-0.9,0-1.8,0.2-2.5,0.5c-0.7,0.3-1.4,0.8-1.9,1.4
				c-0.5,0.6-0.9,1.3-1.2,2.1c-0.3,0.8-0.4,1.7-0.4,2.6c0,0.9,0.1,1.7,0.4,2.4c0.3,0.8,0.7,1.4,1.2,2c0.5,0.6,1.2,1,1.9,1.4
				c0.8,0.3,1.6,0.5,2.6,0.5c0.9,0,1.8-0.2,2.5-0.6c0.7-0.4,1.3-0.9,1.8-1.6l1.9,1.4c-0.1,0.2-0.3,0.4-0.6,0.7
				c-0.3,0.3-0.7,0.6-1.2,0.9c-0.5,0.3-1.1,0.6-1.8,0.8c-0.7,0.2-1.5,0.4-2.5,0.4c-1.3,0-2.4-0.2-3.5-0.7c-1-0.5-1.9-1.1-2.6-1.9
				c-0.7-0.8-1.3-1.7-1.7-2.7c-0.4-1-0.6-2-0.6-3c0-1.3,0.2-2.4,0.6-3.5c0.4-1.1,1-2,1.7-2.8c0.7-0.8,1.6-1.4,2.7-1.8
				c1-0.4,2.2-0.6,3.4-0.6c1.1,0,2.1,0.2,3.2,0.6c1,0.4,1.9,1,2.5,1.9L834.3,377.3z"/>
			<path d="M863.8,385.5h-5.7v-1.9h5.7V385.5z"/>
			<path d="M887.5,386.6c0.4,0.6,0.9,1,1.5,1.3c0.6,0.3,1.3,0.4,1.9,0.4c0.4,0,0.7-0.1,1.1-0.2c0.4-0.1,0.7-0.3,1-0.5
				c0.3-0.2,0.6-0.5,0.8-0.9c0.2-0.3,0.3-0.7,0.3-1.2c0-0.6-0.2-1.1-0.6-1.4c-0.4-0.3-0.9-0.6-1.5-0.8c-0.6-0.2-1.2-0.4-1.9-0.6
				c-0.7-0.2-1.3-0.5-1.9-0.9c-0.6-0.4-1.1-0.9-1.5-1.5s-0.6-1.5-0.6-2.5c0-0.5,0.1-1,0.3-1.5c0.2-0.5,0.5-1,1-1.5
				c0.4-0.4,1-0.8,1.7-1.1c0.7-0.3,1.5-0.4,2.5-0.4c0.9,0,1.7,0.1,2.6,0.4c0.8,0.2,1.5,0.7,2.1,1.5l-1.8,1.6c-0.3-0.4-0.7-0.8-1.2-1
				c-0.5-0.3-1.1-0.4-1.7-0.4c-0.6,0-1.1,0.1-1.5,0.2c-0.4,0.2-0.7,0.4-1,0.6c-0.2,0.3-0.4,0.5-0.5,0.8c-0.1,0.3-0.1,0.6-0.1,0.8
				c0,0.7,0.2,1.2,0.6,1.6c0.4,0.4,0.9,0.7,1.5,0.9c0.6,0.2,1.2,0.4,1.9,0.6c0.7,0.2,1.3,0.4,1.9,0.8c0.6,0.3,1.1,0.8,1.5,1.3
				c0.4,0.6,0.6,1.3,0.6,2.3c0,0.8-0.1,1.5-0.4,2.1c-0.3,0.6-0.7,1.2-1.2,1.6c-0.5,0.4-1.1,0.8-1.8,1c-0.7,0.2-1.4,0.3-2.2,0.3
				c-1,0-2-0.2-3-0.6c-0.9-0.4-1.7-0.9-2.2-1.7L887.5,386.6z"/>
			<path d="M906.5,373.8h5.7c1,0,1.9,0.1,2.6,0.4c0.7,0.3,1.2,0.6,1.6,1.1c0.4,0.4,0.7,0.9,0.8,1.5c0.2,0.5,0.2,1.1,0.2,1.6
				c0,0.5-0.1,1-0.2,1.6c-0.2,0.5-0.4,1-0.8,1.5c-0.4,0.4-0.9,0.8-1.6,1.1c-0.7,0.3-1.5,0.4-2.6,0.4h-3.5v7.2h-2.2V373.8z
				 M908.7,380.9h2.9c0.4,0,0.9,0,1.3-0.1c0.4-0.1,0.8-0.2,1.1-0.4c0.3-0.2,0.6-0.4,0.8-0.8c0.2-0.3,0.3-0.8,0.3-1.3s-0.1-1-0.3-1.3
				c-0.2-0.3-0.5-0.6-0.8-0.8c-0.3-0.2-0.7-0.3-1.1-0.4c-0.4-0.1-0.8-0.1-1.3-0.1h-2.9V380.9z"/>
			<path d="M930.5,373.8h2l7,16.3h-2.6l-1.6-4h-7.7l-1.6,4h-2.6L930.5,373.8z M934.5,384.1l-3-7.5h0l-3.1,7.5H934.5z"/>
		</g>
		<path class="st1" d="M933,303c0,2.5-2,4.5-4.5,4.5c-2.5,0-4.5-2.1-4.5-4.5c0-2.5,2-4.5,4.5-4.5C931,298.5,933,300.6,933,303z
			 M932.4,303c0-2.2-1.7-3.9-4-3.9c-2.2,0-4,1.8-4,3.9c0,2.2,1.7,3.9,3.9,3.9C930.7,307,932.4,305.2,932.4,303z M929.4,303.7
			l1.1,1.6h-0.7l-1-1.5c-0.1,0-0.2,0-0.3,0h-1.2v1.5h-0.6v-4.7h1.8c1.2,0,1.9,0.6,1.9,1.6C930.4,302.9,930.1,303.5,929.4,303.7z
			 M928.6,303.3c0.8,0,1.3-0.4,1.3-1.1c0-0.7-0.5-1.1-1.3-1.1h-1.2v2.2H928.6z"/>
	</g>
</g>
</svg>
