<?xml version="1.0" encoding="utf-8"?>
<!-- Generator: Adobe Illustrator 25.3.1, SVG Export Plug-In . SVG Version: 6.00 Build 0)  -->
<svg version="1.1" id="Capa_1" xmlns="http://www.w3.org/2000/svg" xmlns:xlink="http://www.w3.org/1999/xlink" x="0px" y="0px"
	 viewBox="0 0 233.8 82.7" style="enable-background:new 0 0 233.8 82.7;" xml:space="preserve">
<style type="text/css">
	.st0{fill:#3C3C3C;}
</style>
<g id="Grupo_132" transform="translate(-621.327 -2097.404)">
	<g id="Grupo_128" transform="translate(621.327 2097.404)">
		<path id="Trazado_209" class="st0" d="M31.9,41.3c0-0.2,0-0.3,0.2-1.2c0.6-3.5-3.5-5.8-3.5-5.8c2.6-0.9,4.5-3.3,4.7-6.1
			c0.3-4.1-4.4-9.8-12-5.6c0,0,0,0,0,0.1l0,0l0,0c2.9-1.6,6.7-0.6,8.3,2.3c1.6,2.9,0.6,6.7-2.3,8.3c-0.4,0.2-0.7,0.4-1.1,0.5v0.1
			c1,0.4,3.4,2.3,2.7,6.2c0,0.3-0.1,0.7-0.1,0.8c-1.3,7.4,7.1,9.6,7.1,9.6C32.7,48.5,31.2,44.9,31.9,41.3z"/>
		<path id="Trazado_210" class="st0" d="M46.6,35.4c-1.7-0.3-3.5-0.4-5.2-0.1c-3.3,0.7-5.6,3.5-5.8,6.8c-0.3,6.2,5.5,6.4,5.4,12.7
			c-0.1,4-3.2,7.2-7.2,7.5c0,0-0.1,0-0.1,0.1c0,0,0,0.1,0.1,0.1c4.9,0.9,9.6-2.4,10.5-7.3c0.1-0.3,0.1-0.6,0.1-0.9
			c0.6-6.1-5.4-8.5-5.2-12.8C39.3,38.1,41.5,35.3,46.6,35.4C46.6,35.5,46.6,35.5,46.6,35.4L46.6,35.4z"/>
	</g>
	<g id="Grupo_131" transform="translate(663.431 2112.728)">
		<g id="Grupo_129" transform="translate(21.159 0.399)">
			<path id="Trazado_211_1_" class="st0" d="M33.9,27.4c0,2.4-3.1,2.9-3.1,2.9c0,0,3.1,0.9,3.1,3.3c0,0,0.2,0,0.2,0l0-6.2L33.9,27.4
				z"/>
			<path id="Trazado_212" class="st0" d="M37.9,36.4c-0.3,1.4-2.1,3.2-3.9,4.1c-0.5,0.2-1,0.3-1.5,0.3h-6c1-0.4,1.6-1.3,1.6-2.4
				V23.8c0-1-0.6-2-1.6-2.4h5.7c0.8,0,1.6,0.3,2.2,0.8c1.2,1,2,2.1,2.4,3.6v-4c0-0.4-0.3-0.6-0.6-0.6h-15c0,0,3,0.6,3,3.3v13.2
				c0,1.7-3,3.3-3,3.3h16.1c0.4,0,0.6-0.3,0.6-0.6V36.4z"/>
		</g>
		<g id="Grupo_129_1_" transform="translate(21.159 0.399)">
			<path id="Trazado_211_2_" class="st0" d="M97.1,27.4c0,2.4-3.1,2.9-3.1,2.9c0,0,3.1,0.9,3.1,3.3c0,0,0.2,0,0.2,0l0-6.2L97.1,27.4
				z"/>
			<path id="Trazado_212_1_" class="st0" d="M101.1,36.4c-0.3,1.4-2.1,3.2-3.9,4.1c-0.5,0.2-1,0.3-1.5,0.3h-6c1-0.4,1.6-1.3,1.6-2.4
				V23.8c0-1-0.6-2-1.6-2.4h5.7c0.8,0,1.6,0.3,2.2,0.8c1.2,1,2,2.1,2.4,3.6v-4c0-0.4-0.3-0.6-0.6-0.6h-15c0,0,3,0.6,3,3.3v13.2
				c0,1.7-3,3.3-3,3.3h16.1c0.4,0,0.6-0.3,0.6-0.6V36.4z"/>
		</g>
		<path id="Trazado_215" class="st0" d="M42.1,48.2c-2.3-0.7-3.4-2.9-4.1-4.3c-1.7-3.5-0.7-6.2-2.1-8.5c-0.6-1.1-1.6-1.9-2.8-2.2
			c-0.1,0-0.1,0-0.1-0.1s0-0.1,0.1-0.1c3.3-0.8,4.8-2.8,4.8-5.5c0-3.8-2.8-5.9-7.3-5.9h-9.5c0,0,3,0.6,3,3.3v13.2c0,1.7-3,3.3-3,3.3
			h4.3c1.4,0,2.6-1.2,2.6-2.6l0,0V24.2c0-1-0.6-1.9-1.5-2.4h2.8c1,0,1.9,0.3,2.6,1c1.3,1.2,2,2.9,1.9,4.7c0,3.4-2.9,5.2-3.6,5.6
			c0,0-0.1,0.1,0,0.1l0,0c3.1,1.8,1.7,7.1,4.3,11.3c2.4,3.8,5.5,3.8,7.5,3.9C42.1,48.4,42.1,48.4,42.1,48.2
			C42.2,48.3,42.2,48.2,42.1,48.2L42.1,48.2z"/>
		<path id="Trazado_216" class="st0" d="M138.3,33.2c-0.1,0-0.1-0.1-0.1-0.1s0-0.1,0.1-0.1c3.4-0.7,4.8-2.8,4.8-5.5
			c0-3.4-2.3-5.9-7.5-5.9h-9.3c0,0,3,0.6,3,3.3v13.2c0,1.7-3,3.3-3,3.3h4.3c1.4,0,2.6-1.2,2.6-2.6l0,0V24.2c0-1-0.6-2-1.6-2.4h2.8
			c1,0,2,0.3,2.8,1c1.3,1.2,2,2.9,1.9,4.7c0,3.4-2.9,5.1-3.7,5.6c-0.1,0.1-0.1,0.1,0,0.2c3.7,2.3,1.4,8.9,7,8.9c1.2,0,2.3-0.3,3.2-1
			C141.5,41.5,142.9,34,138.3,33.2z"/>
		<path id="Trazado_217" class="st0" d="M102.5,21.6h-6.7c1.3,0.7,2,1.9,2.1,4c0,0.6-0.1,1.2-0.3,1.7L94,39.4
			c-0.3,0.7-0.5,1.5-1.2,1.5c-0.6,0-0.8-0.4-1.2-1.7l-4-13.7c-0.7-2.6-3-4.4-5.7-4.4h-2.8c0,0,3.4,0.8,4.2,3.6L88,39.3
			c0.8,2.3,2.4,2.4,3.9,2.4c1.8,0,2.1-1.2,2.5-2.2L98,27.3c0.2-0.6,0.4-1.1,0.7-1.7C99.4,23.9,100.8,22.5,102.5,21.6z"/>
		<path id="Trazado_218" class="st0" d="M172.1,48.2c-2.3-1.1-3.9-3.1-4.6-5.5l-5.7-19c-0.8-2.3-2.4-2.4-3.9-2.4
			c-1.8,0-2.1,1.2-2.5,2.2l-3.6,12.2c-0.2,0.6-0.4,1.1-0.7,1.7c-0.8,1.7-2.2,3.2-3.9,4h6.7c-1.3-0.7-2-1.9-2.1-4
			c0-0.6,0.1-1.2,0.3-1.7l3.6-12.1c0.3-0.9,0.6-1.6,1.3-1.6c0.3,0,0.7,0,1,1l5.5,19C164.6,45.7,168.1,48.2,172.1,48.2
			C172.1,48.3,172.1,48.3,172.1,48.2L172.1,48.2z"/>
		<path id="Trazado_219" class="st0" d="M77.7,36.5c0-6.7-12.2-6.7-12.2-11.6c0-1.6,1.6-3.1,4.9-3.1c0.2,0,0.5,0,0.7,0
			c0.5,0,1,0.3,1.3,0.7c0.4,0.8,0.5,1.8,0.4,2.7c0,1.1,0.9,2,2,2s2-0.9,2-2l0,0c0-3.6-4.4-3.7-6.2-3.8c-5.1,0-6,3.1-6,5.9
			c0.1,6.5,11.3,7,11.3,11.1c0,0.2-0.1,0.5-0.1,0.7c-0.4,0.9-1.2,1.6-2.2,1.9c-1.5,0.4-3.1,0.4-4.7,0c-0.5-0.1-1-0.4-1.4-0.7
			c-1.4-1.4-2.6-3-3.5-4.9v5.8c0.8-1.2,2.6-0.3,4.5,0c0.8,0.2,1.7,0.2,2.6,0.3c1.4,0,2.8-0.3,4.1-0.9l0,0l0,0
			C76.8,40.1,77.8,38.4,77.7,36.5z"/>
	</g>
	<path id="Trazado_220" class="st0" d="M835.5,2152.4c0,1-0.8,1.7-1.7,1.7s-1.7-0.8-1.7-1.7s0.8-1.7,1.7-1.7
		S835.5,2151.5,835.5,2152.4z M835.3,2152.4c0-0.8-0.7-1.5-1.5-1.5s-1.5,0.7-1.5,1.5s0.7,1.5,1.5,1.5S835.3,2153.3,835.3,2152.4
		L835.3,2152.4L835.3,2152.4z M834.1,2152.7l0.4,0.6h-0.3l-0.4-0.6h-0.1h-0.5v0.6H833v-1.8h0.7c0.5,0,0.7,0.2,0.7,0.6
		C834.5,2152.3,834.4,2152.6,834.1,2152.7L834.1,2152.7z M833.8,2152.5c0.3,0,0.5-0.2,0.5-0.4s-0.2-0.4-0.5-0.4h-0.5v0.8
		L833.8,2152.5L833.8,2152.5z"/>
</g>
</svg>
