<?xml version="1.0" encoding="utf-8"?>
<!-- Generator: Adobe Illustrator 25.3.1, SVG Export Plug-In . SVG Version: 6.00 Build 0)  -->
<svg version="1.1" id="Capa_1" xmlns="http://www.w3.org/2000/svg" xmlns:xlink="http://www.w3.org/1999/xlink" x="0px" y="0px"
	 viewBox="0 0 295.1 82.7" style="enable-background:new 0 0 295.1 82.7;" xml:space="preserve">
<style type="text/css">
	.st0{fill:#48DFCA;}
	.st1{fill:#3C3C3C;}
</style>
<g>
	<path class="st0" d="M272.8,55.9L272.8,55.9c-1.3,0-2.3,0.1-3.5,0.2c-2.2,0.2-4.5,0.6-6.9,1.3c-2,0.5-3.9,1.1-6.1,1.9
		c-1.1,0.4-2,0.7-2.7,1.1h-0.1c-0.3,0.1-0.7,0.3-1.1,0.4c-0.1,0-0.2,0.1-0.2,0.1l0,0v-0.1c0-0.3,0.1-0.5,0.2-0.7
		c0-0.1,0.1-0.2,0.1-0.3c0.1-0.3,0.3-0.7,0.5-1l0,0l0,0c0.1-0.2,0.2-0.3,0.3-0.5c0-0.1,0.1-0.2,0.1-0.3l0,0l0,0l0.6-1
		c0.2-0.3,0.4-0.6,0.6-1c0.2-0.3,0.4-0.6,0.6-1c1-1.7,2.1-3.1,2.9-4.5c0.2-0.2,0.3-0.4,0.5-0.6c0.1-0.2,0.3-0.4,0.4-0.6
		c0.7-0.1,1.4-0.1,2.1-0.1c2.3-0.2,4.6-0.2,6.3-0.2c0.2,0,0.4,0,0.7,0c0.2,0,0.5,0,0.7,0c0.3,0,0.3,0,0.3,0.1c0,0,0,0,0.1,0
		c0.2,0.2,0.6,0.3,0.9,0.1l0.3-0.2c0.3-0.2,0.2-0.4,0.2-0.5c-0.1-0.3-0.5-0.5-0.8-0.6l-1.6-0.1h-1.5c-1,0-2.2,0-3.1,0
		c-1.3,0-2.6,0.1-3.8,0.2c0.6-0.8,1.3-1.7,1.9-2.6c0.9-1.4,2-2.7,2.9-4.1l0,0c0.2-0.2,0.4-0.5,0.5-0.8c0.1-0.2,0-0.4-0.1-0.5
		c-0.2-0.2-0.6-0.3-0.9-0.3c-0.2,0-0.3,0.2-0.4,0.3c0,0,0,0,0,0.1l0,0c0,0,0,0.1-0.1,0.1c0,0.1-0.1,0.2-0.2,0.2l-0.5,0.7
		c-0.3,0.4-0.6,0.8-0.9,1.3c-0.5,0.8-1.1,1.6-1.8,2.4l-2.4,3.3c-0.1,0-0.1,0-0.2,0s-0.2,0-0.3,0c-0.8,0.1-1.6,0.2-2.4,0.2h-0.2
		c-0.2,0-0.4,0.1-0.5,0.3c-0.1,0.1-0.1,0.3,0,0.4l0,0c0,0.1,0.1,0.2,0.1,0.3l0,0l0,0c0,0,0.3,0.2,0.6,0.1l0,0l0,0c0,0,0,0,0.1,0
		s0.3,0,0.4,0l0.8-0.1h0.4c-2,2.7-3.8,5.5-5.4,8.5c-0.2,0.4-0.5,0.9-0.7,1.4l-0.1,0.2v0.1c-0.2,0.5-0.4,1.3-0.2,2
		c0.2,0.4,0.4,0.6,0.9,0.7c0.1,0,0.3,0,0.4,0c0.1,0,0.3,0,0.4,0c0.4,0,0.9-0.1,1.6-0.4c0.5-0.1,0.9-0.4,1.5-0.6l1.3-0.5
		c4.7-1.8,9-2.8,13.1-3.2c1-0.1,2.1-0.1,3-0.2c0.1,0,0.3,0,0.4,0s0.2,0,0.3,0h0.3c0.2,0.1,0.3,0,0.3,0l0,0h0.1
		c0.2,0.2,0.6,0.4,0.9,0.4l0,0c0.2,0,0.4-0.1,0.5-0.3c0.1-0.1,0.1-0.3,0-0.4C275.1,55.9,273.8,55.9,272.8,55.9z"/>
	<path class="st0" d="M279.8,38c0.1-0.1,0.1-0.3,0-0.4c-0.1-0.3-0.4-0.4-0.7-0.5c-4.1-0.4-8.1-0.1-12.2,0.1l-0.9,0.1
		c-1.4,0.1-2.8,0.2-4.2,0.2h-0.1c-0.1,0-0.1,0-0.2,0s-0.3,0-0.4,0s-0.2,0-0.3,0h-0.3c-0.3-0.2-0.8-0.3-1-0.1l-0.1,0.1
		c-0.3,0.2-0.2,0.5-0.2,0.6c0.1,0.4,0.6,0.5,1,0.6c0.1,0,0.3,0,0.5,0c0.1,0,0.3,0,0.4,0c0.2,0,0.5,0,0.8,0c0.1,0,0.3,0,0.4,0
		c1.8-0.1,3.5-0.2,5.2-0.3c2.6-0.2,5.2-0.3,7.8-0.3h0.8c0,0,0,0,0,0.1c0.1,0.4,0.6,0.5,0.9,0.5l0,0c0.7-0.1,1.6-0.2,2.3-0.4
		C279.6,38.3,279.7,38.2,279.8,38z"/>
	<path class="st0" d="M231.8,32.4C231.8,32.4,231.9,32.4,231.8,32.4L231.8,32.4z"/>
	<path class="st0" d="M255.7,37.2c0.2-0.3-0.1-0.6-0.3-0.7c-0.9-0.4-1.9-0.1-2.7,0.3c-0.7,0.4-1.4,1-2,1.6l-0.3,0.3
		c-0.1,0.1,0.1-0.1,0,0c0,0,0,0,0,0.1h-0.1c-0.3,0.2-0.6,0.5-0.8,0.7l-0.8,0.7c-1,0.9-2.2,2-3.2,2.9c-2,1.9-4,3.8-5.7,5.8
		c-1.7,1.9-3.3,3.9-4.9,5.8c-0.8,1-1.7,2.1-2.6,3c-0.4,0.5-0.8,1-1.3,1.6c0.1-0.4,0.3-0.7,0.4-1.1c0.3-0.7,0.7-1.6,1.1-2.3l0.1-0.1
		c0.1-0.1,0,0.1,0,0l0.1-0.3c0.1-0.2,0.2-0.4,0.3-0.6l0.7-1.1l2.1-3.4c0.4-0.7,0.8-1.6,1.3-2.3c0.8-1.4,1.6-2.7,2.3-4.2
		c0.7-1.4,1.5-2.7,2-4.1c0.2-0.4,0.4-0.8,0.5-1.4c0.1-0.4,0.2-0.7-0.1-1c-0.2-0.4-0.8-0.4-1.3-0.3c-2.2,1-4,2.8-5.6,4.6
		c-0.7,0.9-1.6,1.9-2.4,2.7c-1,1-2,2.1-2.9,3.2c-1.8,2.1-3.4,4.2-5,6.3c2-3.4,4-6.8,5.7-10.3l1.6-3.3c0.2-0.6,0.5-1.1,0.7-1.9
		c0.6-1.5,2.2-5.4,0.6-6.7c-1.7-1.4-4.3,0-5.2,0.5c-1.3,0.6-2.2,1.3-3.2,2.2c-0.5,0.4-1.1,1.1-1.4,1.7c-0.6,1.3,0.7,2.1,1.3,0.5
		c0.3-0.9,1-1.8,2.4-2.7c4-2.6,5.1-2.2,5.4-1.5c0.8,1.7-3.3,9.9-3.9,11c-0.6,1.3-1.3,2.5-2,3.6c-1.4,2.4-2.7,4.8-4.2,7.2
		s-2.9,4.8-4.3,7.3c-0.6,1.1-1.3,2.4-1.9,3.6c-0.2,0.4-0.3,0.7-0.5,1.1c-0.3,0.5-0.6,1.1-0.9,1.7c-0.4,0.7-0.7,1.6-0.8,2.4
		c0,0.3,0.4,0.5,0.6,0.6c0.3,0.1,0.7,0.1,0.8-0.1c0.6-0.7,1-1.8,1.4-2.7c0.2-0.4,0.3-0.9,0.5-1.4c0.7-1.1,1.5-2.3,2.2-3.4
		c1.6-2.4,3.2-4.8,5-7.1c1.7-2.3,3.4-4.6,5.4-6.9c1.8-2.1,3.6-4.1,5.4-6.1c1.4-1.6,2.8-3.1,4.5-4.4c-0.1,0.2-0.2,0.4-0.3,0.5
		c-0.6,1.5-1.4,2.7-2.1,4.2l-0.3,0.5c0,0,0,0,0,0.1c0,0,0,0,0,0.1c-0.1,0.1-0.1,0.2-0.2,0.3c-0.2,0.3-0.4,0.7-0.6,1l-1,1.9l-1.3,2.2
		c-1.7,2.7-3.4,5.3-4.7,8.2c-0.2,0.6-0.4,1.1-0.5,1.8c-0.1,0.4-0.1,1,0.1,1.5c0.2,0.4,0.9,0.7,1.4,0.4c1-0.8,1.9-1.9,2.7-2.8
		l2.3-2.7c1.6-2,3.2-4,4.9-5.8c1.8-2,3.6-3.9,5.5-5.7c1-1,2.1-2,3.1-3l1.7-1.5l0.7-0.7c-0.1,0.1,0,0,0,0c0.1-0.1,0.2-0.1,0.2-0.2
		c0.3-0.2,0.5-0.4,0.7-0.6c0.2-0.2,0.3-0.2,0.3-0.2s0,0,0.1,0c-0.5,0.7-1,1.6-1.6,2.3c-2.1,3-4.3,6.1-6.3,9.3c-1,1.6-2.1,3.2-3,4.9
		c-0.9,1.6-1.9,3.2-2.6,4.9c-0.4,1.1-1.1,3.4,0.6,4c0.3,0.1,0.8,0.1,0.9-0.3c0.1-0.3-0.2-0.5-0.4-0.6c0,0,0,0,0-0.1s0-0.2,0-0.3
		v-0.2V62l0.1-0.6c0.1-0.5,0.3-1,0.5-1.5c0.4-0.8,0.7-1.8,1.3-2.6l0.1-0.2c0.1-0.1,0,0.1,0,0c0,0,0-0.1,0.4-0.7l0.6-1.1
		c2-3.3,4.2-6.6,6.4-9.8c1.7-2.4,3.3-4.8,5.1-7.2L255.7,37.2z"/>
	<path class="st0" d="M245.4,60c-0.2-0.1-0.5-0.1-0.7,0.1c-0.3,0.3-0.6,0.6-0.9,0.9c-0.3,0.4,0.1,0.8,0.4,1c0.2,0.1,0.5,0.2,0.8,0.1
		c0.2,0,0.4-0.1,0.5-0.2c0.2-0.2,0.5-0.5,0.8-0.8c0.2-0.3,0-0.6-0.2-0.8C246.1,60.1,245.8,60,245.4,60z"/>
	<path class="st0" d="M280.5,56.1c-0.2-0.1-0.5-0.2-0.7-0.2c-0.2-0.1-0.5-0.1-0.7,0.1c-0.3,0.3-0.6,0.6-0.9,0.9
		c-0.3,0.4,0.1,0.8,0.4,1c0.2,0.1,0.5,0.2,0.8,0.1c0.2,0,0.4-0.1,0.5-0.2c0.2-0.2,0.5-0.5,0.8-0.8C281,56.7,280.8,56.4,280.5,56.1z"
		/>
</g>
<g id="Grupo_132" transform="translate(-621.327 -2097.404)">
	<g id="Grupo_128" transform="translate(621.327 2097.404)">
		<path id="Trazado_209" class="st1" d="M31.9,41.3c0-0.2,0-0.3,0.2-1.2c0.6-3.5-3.5-5.8-3.5-5.8c2.6-0.9,4.5-3.3,4.7-6.1
			c0.3-4.1-4.4-9.8-12-5.6c0,0,0,0,0,0.1l0,0l0,0c2.9-1.6,6.7-0.6,8.3,2.3c1.6,2.9,0.6,6.7-2.3,8.3c-0.4,0.2-0.7,0.4-1.1,0.5v0.1
			c1,0.4,3.4,2.3,2.7,6.2c0,0.3-0.1,0.7-0.1,0.8c-1.3,7.4,7.1,9.6,7.1,9.6C32.7,48.5,31.2,44.9,31.9,41.3z"/>
		<path id="Trazado_210" class="st1" d="M46.6,35.4c-1.7-0.3-3.5-0.4-5.2-0.1c-3.3,0.7-5.6,3.5-5.8,6.8c-0.3,6.2,5.5,6.4,5.4,12.7
			c-0.1,4-3.2,7.2-7.2,7.5c0,0-0.1,0-0.1,0.1c0,0,0,0.1,0.1,0.1c4.9,0.9,9.6-2.4,10.5-7.3c0.1-0.3,0.1-0.6,0.1-0.9
			c0.6-6.1-5.4-8.5-5.2-12.8C39.3,38.1,41.5,35.3,46.6,35.4C46.6,35.5,46.6,35.5,46.6,35.4L46.6,35.4z"/>
	</g>
	<g id="Grupo_131" transform="translate(663.431 2112.728)">
		<g id="Grupo_129" transform="translate(21.159 0.399)">
			<path id="Trazado_211_1_" class="st1" d="M33.9,27.4c0,2.4-3.1,2.9-3.1,2.9c0,0,3.1,0.9,3.1,3.3c0,0,0.2,0,0.2,0l0-6.2L33.9,27.4
				z"/>
			<path id="Trazado_212" class="st1" d="M37.9,36.4c-0.3,1.4-2.1,3.2-3.9,4.1c-0.5,0.2-1,0.3-1.5,0.3h-6c1-0.4,1.6-1.3,1.6-2.4
				V23.8c0-1-0.6-2-1.6-2.4h5.7c0.8,0,1.6,0.3,2.2,0.8c1.2,1,2,2.1,2.4,3.6v-4c0-0.4-0.3-0.6-0.6-0.6h-15c0,0,3,0.6,3,3.3v13.2
				c0,1.7-3,3.3-3,3.3h16.1c0.4,0,0.6-0.3,0.6-0.6V36.4z"/>
		</g>
		<g id="Grupo_129_1_" transform="translate(21.159 0.399)">
			<path id="Trazado_211_2_" class="st1" d="M97.1,27.4c0,2.4-3.1,2.9-3.1,2.9c0,0,3.1,0.9,3.1,3.3c0,0,0.2,0,0.2,0l0-6.2L97.1,27.4
				z"/>
			<path id="Trazado_212_1_" class="st1" d="M101.1,36.4c-0.3,1.4-2.1,3.2-3.9,4.1c-0.5,0.2-1,0.3-1.5,0.3h-6c1-0.4,1.6-1.3,1.6-2.4
				V23.8c0-1-0.6-2-1.6-2.4h5.7c0.8,0,1.6,0.3,2.2,0.8c1.2,1,2,2.1,2.4,3.6v-4c0-0.4-0.3-0.6-0.6-0.6h-15c0,0,3,0.6,3,3.3v13.2
				c0,1.7-3,3.3-3,3.3h16.1c0.4,0,0.6-0.3,0.6-0.6V36.4z"/>
		</g>
		<path id="Trazado_215" class="st1" d="M42.1,48.2c-2.3-0.7-3.4-2.9-4.1-4.3c-1.7-3.5-0.7-6.2-2.1-8.5c-0.6-1.1-1.6-1.9-2.8-2.2
			c-0.1,0-0.1,0-0.1-0.1s0-0.1,0.1-0.1c3.3-0.8,4.8-2.8,4.8-5.5c0-3.8-2.8-5.9-7.3-5.9h-9.5c0,0,3,0.6,3,3.3v13.2c0,1.7-3,3.3-3,3.3
			h4.3c1.4,0,2.6-1.2,2.6-2.6l0,0V24.2c0-1-0.6-1.9-1.5-2.4h2.8c1,0,1.9,0.3,2.6,1c1.3,1.2,2,2.9,1.9,4.7c0,3.4-2.9,5.2-3.6,5.6
			c0,0-0.1,0.1,0,0.1l0,0c3.1,1.8,1.7,7.1,4.3,11.3c2.4,3.8,5.5,3.8,7.5,3.9C42.1,48.4,42.1,48.4,42.1,48.2
			C42.2,48.3,42.2,48.2,42.1,48.2L42.1,48.2z"/>
		<path id="Trazado_216" class="st1" d="M138.3,33.2c-0.1,0-0.1-0.1-0.1-0.1s0-0.1,0.1-0.1c3.4-0.7,4.8-2.8,4.8-5.5
			c0-3.4-2.3-5.9-7.5-5.9h-9.3c0,0,3,0.6,3,3.3v13.2c0,1.7-3,3.3-3,3.3h4.3c1.4,0,2.6-1.2,2.6-2.6l0,0V24.2c0-1-0.6-2-1.6-2.4h2.8
			c1,0,2,0.3,2.8,1c1.3,1.2,2,2.9,1.9,4.7c0,3.4-2.9,5.1-3.7,5.6c-0.1,0.1-0.1,0.1,0,0.2c3.7,2.3,1.4,8.9,7,8.9c1.2,0,2.3-0.3,3.2-1
			C141.5,41.5,142.9,34,138.3,33.2z"/>
		<path id="Trazado_217" class="st1" d="M102.5,21.6h-6.7c1.3,0.7,2,1.9,2.1,4c0,0.6-0.1,1.2-0.3,1.7L94,39.4
			c-0.3,0.7-0.5,1.5-1.2,1.5c-0.6,0-0.8-0.4-1.2-1.7l-4-13.7c-0.7-2.6-3-4.4-5.7-4.4h-2.8c0,0,3.4,0.8,4.2,3.6L88,39.3
			c0.8,2.3,2.4,2.4,3.9,2.4c1.8,0,2.1-1.2,2.5-2.2L98,27.3c0.2-0.6,0.4-1.1,0.7-1.7C99.4,23.9,100.8,22.5,102.5,21.6z"/>
		<path id="Trazado_218" class="st1" d="M172.1,48.2c-2.3-1.1-3.9-3.1-4.6-5.5l-5.7-19c-0.8-2.3-2.4-2.4-3.9-2.4
			c-1.8,0-2.1,1.2-2.5,2.2l-3.6,12.2c-0.2,0.6-0.4,1.1-0.7,1.7c-0.8,1.7-2.2,3.2-3.9,4h6.7c-1.3-0.7-2-1.9-2.1-4
			c0-0.6,0.1-1.2,0.3-1.7l3.6-12.1c0.3-0.9,0.6-1.6,1.3-1.6c0.3,0,0.7,0,1,1l5.5,19C164.6,45.7,168.1,48.2,172.1,48.2
			C172.1,48.3,172.1,48.3,172.1,48.2L172.1,48.2z"/>
		<path id="Trazado_219" class="st1" d="M77.7,36.5c0-6.7-12.2-6.7-12.2-11.6c0-1.6,1.6-3.1,4.9-3.1c0.2,0,0.5,0,0.7,0
			c0.5,0,1,0.3,1.3,0.7c0.4,0.8,0.5,1.8,0.4,2.7c0,1.1,0.9,2,2,2s2-0.9,2-2l0,0c0-3.6-4.4-3.7-6.2-3.8c-5.1,0-6,3.1-6,5.9
			c0.1,6.5,11.3,7,11.3,11.1c0,0.2-0.1,0.5-0.1,0.7c-0.4,0.9-1.2,1.6-2.2,1.9c-1.5,0.4-3.1,0.4-4.7,0c-0.5-0.1-1-0.4-1.4-0.7
			c-1.4-1.4-2.6-3-3.5-4.9v5.8c0.8-1.2,2.6-0.3,4.5,0c0.8,0.2,1.7,0.2,2.6,0.3c1.4,0,2.8-0.3,4.1-0.9l0,0l0,0
			C76.8,40.1,77.8,38.4,77.7,36.5z"/>
	</g>
	<path id="Trazado_220" class="st1" d="M835.5,2152.4c0,1-0.8,1.7-1.7,1.7s-1.7-0.8-1.7-1.7s0.8-1.7,1.7-1.7
		S835.5,2151.5,835.5,2152.4z M835.3,2152.4c0-0.8-0.7-1.5-1.5-1.5s-1.5,0.7-1.5,1.5s0.7,1.5,1.5,1.5S835.3,2153.3,835.3,2152.4
		L835.3,2152.4L835.3,2152.4z M834.1,2152.7l0.4,0.6h-0.3l-0.4-0.6h-0.1h-0.5v0.6H833v-1.8h0.7c0.5,0,0.7,0.2,0.7,0.6
		C834.5,2152.3,834.4,2152.6,834.1,2152.7L834.1,2152.7z M833.8,2152.5c0.3,0,0.5-0.2,0.5-0.4s-0.2-0.4-0.5-0.4h-0.5v0.8
		L833.8,2152.5L833.8,2152.5z"/>
</g>
</svg>
