<?xml version="1.0" encoding="utf-8"?>
<!-- Generator: Adobe Illustrator 25.4.1, SVG Export Plug-In . SVG Version: 6.00 Build 0)  -->
<svg version="1.1" id="Capa_1" xmlns="http://www.w3.org/2000/svg" xmlns:xlink="http://www.w3.org/1999/xlink" x="0px" y="0px"
	 viewBox="0 0 1920 1081" style="enable-background:new 0 0 1920 1081;" xml:space="preserve">
<style type="text/css">
	.st0{fill:#FFFFFF;}
</style>
<g>
	<path class="st0" d="M1229.5,776.4c-0.6-0.3-1.2-0.5-1.8-0.6c-0.7-0.1-1.3-0.2-2-0.2h-4.6v8.4h4.6c0.7,0,1.3-0.1,2-0.2
		s1.2-0.3,1.8-0.6c0.6-0.3,1-0.7,1.2-1.2c0.3-0.6,0.5-1.2,0.5-2.1c0-0.9-0.2-1.6-0.5-2.1S1230.1,776.7,1229.5,776.4z"/>
	<polygon class="st0" points="831.1,777.2 826.2,789.1 836.1,789.1 831.2,777.2 	"/>
	<path class="st0" d="M871.7,782c0.3-0.6,0.5-1.2,0.5-2.1c0-0.9-0.2-1.6-0.5-2.1s-0.8-1-1.2-1.2c-0.5-0.3-1.2-0.5-1.8-0.6
		c-0.7-0.1-1.3-0.2-2-0.2H862v8.4h4.6c0.7,0,1.3-0.1,2-0.2c0.7-0.1,1.2-0.3,1.8-0.6C871,783,871.3,782.5,871.7,782z"/>
	<path class="st0" d="M1255.3,660.5c0-1.1-0.8-1.7-2.1-1.7h-1.9v3.5h1.9C1254.5,662.3,1255.3,661.6,1255.3,660.5z"/>
	<path class="st0" d="M0,0v1081h1920V0H0z M1253.1,654.8c3.9,0,7.1,3.2,7.1,7.1c0,3.8-3.1,7.1-7.1,7.1c-3.9,0-7-3.2-7-7.1
		S1249.1,654.8,1253.1,654.8z M947.6,373.8c1-17.9,14.3-32.4,30.6-35.7c11.6-2.4,27.2,0.6,27.2,0.6c0.3,0.1,0.2,0.5,0,0.5
		c-26.7-1-38.1,13.6-39.1,31.7c-1.2,22.7,30.5,35.1,27.4,67.2c-3.3,33.4-33.7,47.7-55.6,43.1c-0.5-0.1-0.5-0.9,0.1-1
		c23.7-2,37.5-22.3,37.7-39.6C976.3,407.4,945.8,406.4,947.6,373.8z M871.9,271.7c39.9-21.9,64.5,7.7,63.1,29.3
		c-1.5,25.2-24.4,32.2-24.4,32.2s21.4,11.8,18.4,30.2c-0.8,4.7-0.8,5.1-1,6.3c-5.7,32.3,20.4,48.5,20.4,48.5s-44-11.5-37.2-50.5
		c0.2-0.9,0.5-3,0.8-4.3c3.8-20.6-9.1-30.1-14.2-32.4c-0.2-0.1-0.2-0.3,0-0.4c7.4-2.3,20.7-10.3,22.1-28.4
		c1.9-24.2-24.2-42.6-47.6-30.1c-0.1,0-0.1,0.1-0.2,0.1c-0.1,0-0.1,0-0.2-0.1C871.8,271.9,871.8,271.7,871.9,271.7z M654,794.6
		c-0.5,1-1.2,1.8-1.9,2.5s-1.7,1.2-2.9,1.6c-1.2,0.4-2.3,0.6-3.6,0.6c-1.6,0-3.3-0.3-4.8-0.9c-1.5-0.6-2.7-1.5-3.6-2.7l2.9-2.5
		c0.7,1,1.4,1.6,2.5,2.1c1,0.5,2,0.7,3.1,0.7c0.6,0,1.2-0.1,1.8-0.3c0.6-0.2,1.2-0.5,1.6-0.9c0.5-0.4,1-0.9,1.2-1.3
		c0.3-0.6,0.5-1.2,0.5-1.9c0-1-0.3-1.7-1-2.3c-0.7-0.6-1.4-1-2.4-1.3c-1-0.4-2-0.7-3.1-1.1c-1.2-0.3-2.1-0.8-3.1-1.3
		s-1.7-1.3-2.4-2.4c-0.7-1-1-2.3-1-4c0-0.8,0.2-1.5,0.5-2.4c0.3-0.9,0.9-1.6,1.5-2.4c0.7-0.7,1.6-1.3,2.8-1.8c1.2-0.5,2.5-0.7,4-0.7
		c1.4,0,2.8,0.2,4.1,0.6s2.4,1.2,3.5,2.4l-2.9,2.6c-0.5-0.7-1.1-1.2-1.9-1.6c-0.8-0.4-1.7-0.7-2.8-0.7c-1,0-1.8,0.1-2.5,0.4
		c-0.7,0.3-1.2,0.6-1.5,1c-0.4,0.4-0.7,0.9-0.9,1.3c-0.2,0.5-0.3,0.9-0.3,1.2c0,1.2,0.3,1.9,1,2.5c0.7,0.6,1.4,1.1,2.4,1.4
		c1,0.4,2,0.7,3.1,1c1.2,0.3,2.1,0.7,3.1,1.2c1,0.6,1.7,1.2,2.4,2.1c0.7,0.9,1,2.1,1,3.7C654.6,792.5,654.4,793.6,654,794.6z
		 M686.5,798.7l-12.2-13.1H674v13.1h-3.6v-26.1h3.6v11.2h0.3l11.5-11.2h4.9l-12.6,12l13.4,14L686.5,798.7L686.5,798.7z M709.2,798.7
		h-3.6v-26.1h3.6V798.7z M723.7,697.8c-8.2-0.4-21.3-0.2-31-15.9c-10.8-17.4-5-39.5-17.9-46.8c-0.3-0.2-0.3-0.6,0-0.8
		c3-1.6,15-8.7,15-23c0-9.3-4-15.5-7.9-19.3c-2.7-2.7-7-3.9-10.9-3.9h-11.6c3.7,1.7,6.2,5.5,6.2,9.8v60.3c0,6-4.8,10.9-10.9,10.9
		h-17.5c0,0,12.3-6.5,12.3-13.6v-54.7c0.1-11-12.3-13.6-12.3-13.6h39c18.4,0,30.1,8.6,30.1,24.2c0,11.2-5.9,19.7-19.6,22.9
		c-0.5,0.1-0.5,0.7,0,0.8c2.8,0.7,7.5,2.8,11.5,9.2c6.1,9.7,1.9,20.6,8.8,35.1c2.7,5.7,7.1,14.7,16.7,17.7
		C724.4,697.1,724.3,697.8,723.7,697.8z M724.7,587.2h61.8c1.4,0,2.6,1.2,2.6,2.6v16.8c-1.2-5-4.9-11.2-9.9-15.3
		c-2.6-2.1-5.9-3.2-9.2-3.2h-23.4c3.8,1.6,6.5,5.4,6.5,9.8v60.3c0,4.4-2.7,8.2-6.4,9.9h24.8c2.1,0,4.2-0.4,6.1-1.3
		c7.6-3.7,14.9-11.1,16.2-17.1v16.8c0,1.4-1.2,2.6-2.6,2.6h-66.4c0,0,12.3-6.5,12.3-13.6v-54.7C737.1,589.8,724.7,587.2,724.7,587.2
		z M778,612.9v25.6c0-5.9-6.4-12.8-13.6-12.8C771.5,625.7,778,618.7,778,612.9z M749.2,798.7h-4.5l-14.5-21.4h-0.1v21.4h-3.6v-26.1
		h4.6l14.4,21.4h0.1v-21.4h3.6V798.7z M804.8,795.9c-0.5,0.5-1.2,1-1.9,1.5c-0.8,0.5-1.8,1-3,1.3c-1.2,0.4-2.5,0.6-3.9,0.6
		c-2,0-3.9-0.4-5.6-1.2c-1.6-0.8-3.1-1.8-4.2-3.1c-1.2-1.2-2-2.7-2.7-4.3c-0.6-1.6-1-3.3-1-4.9c0-2,0.3-3.8,1-5.6
		c0.7-1.7,1.6-3.2,2.8-4.4c1.2-1.2,2.6-2.2,4.3-2.9c1.6-0.7,3.6-1.1,5.6-1.1c1.7,0,3.5,0.3,5.1,1s3,1.7,4,3.1l-3,2.2
		c-0.8-1-1.6-1.7-2.8-2.2s-2.3-0.8-3.5-0.8c-1.4,0-2.8,0.3-4,0.9c-1.2,0.6-2.2,1.3-3.1,2.3s-1.5,2.1-2,3.4c-0.5,1.2-0.7,2.7-0.7,4.1
		c0,1.3,0.2,2.7,0.7,3.9c0.5,1.2,1.1,2.3,1.9,3.3c0.9,1,1.8,1.6,3.1,2.2c1.2,0.6,2.6,0.8,4.1,0.8c1.5,0,2.8-0.3,3.9-1
		c1.2-0.6,2.1-1.4,2.9-2.6l3,2.2C805.6,795,805.3,795.4,804.8,795.9z M814,669.1l-0.1-24c0,0,6.1,13,14.3,20.1
		c1.6,1.4,3.6,2.4,5.7,3c3,0.8,6.1,1.2,9.4,1.2c3.4,0,6.7-0.5,9.9-1.2c4-1.1,7.5-3.8,8.9-7.8c0.4-1,0.6-1.9,0.6-2.9
		c0-16.9-46.3-19.3-46.6-46c-0.1-11.5,3.7-24.3,24.7-24.2c7.1,0,25.5,0.7,25.5,15.5c0,4.5-3.7,8.2-8.1,8.2c-4.5,0-8.2-3.7-8.2-8.2
		c0-1.6,1.1-7.2-1.5-11.2c-1.2-1.7-3.1-2.9-5.2-3.1c-1-0.1-1.8-0.2-2.8-0.2c-13.4,0-20.1,6.1-20.1,12.8c0,19.9,50.3,19.9,50.3,47.7
		c0,11-6.6,15.8-10.8,17.8l0,0l0,0c-0.4,0.2-7.8,3.7-16.7,3.7c-3.2,0-7-0.4-10.7-1.1C824.8,667.8,817.2,663.9,814,669.1z
		 M839.9,798.7l-2.6-6.4h-12.4l-2.6,6.4h-4.1l11.5-26.1h3.2l11.1,26.1H839.9z M872.5,798.7l-6.6-11.5h-3.9v11.5h-3.6v-26.1h9.2
		c1.6,0,3.1,0.2,4.1,0.7c1.1,0.5,1.9,1.1,2.6,1.7c0.7,0.7,1.1,1.4,1.3,2.4c0.3,0.9,0.4,1.7,0.4,2.5c0,0.9-0.2,1.6-0.5,2.4
		c-0.3,0.8-0.7,1.4-1.2,2.1c-0.6,0.7-1.2,1.2-2,1.5c-0.8,0.4-1.7,0.7-2.7,0.8l7.4,11.9L872.5,798.7L872.5,798.7z M909.3,798.7h-17.5
		v-26.1h16.8v3.4h-13.4v7.8h12.4v3.4h-12.4v8.4h13.9L909.3,798.7L909.3,798.7z M963.3,795.9c-0.5,0.5-1.2,1-1.9,1.5
		c-0.8,0.5-1.8,1-3,1.3c-1.2,0.4-2.5,0.6-3.9,0.6c-2,0-3.9-0.4-5.6-1.2c-1.6-0.8-3.1-1.8-4.2-3.1c-1.2-1.2-2-2.7-2.7-4.3
		c-0.6-1.6-1-3.3-1-4.9c0-2,0.3-3.8,1-5.6c0.7-1.7,1.6-3.2,2.8-4.4c1.2-1.2,2.6-2.2,4.3-2.9c1.6-0.7,3.6-1.1,5.6-1.1
		c1.7,0,3.5,0.3,5.1,1s3,1.7,4,3.1l-3,2.2c-0.8-1-1.6-1.7-2.8-2.2c-1.2-0.5-2.3-0.8-3.5-0.8c-1.4,0-2.8,0.3-4,0.9
		c-1.2,0.6-2.2,1.3-3.1,2.3c-0.9,1-1.5,2.1-2,3.4c-0.5,1.2-0.7,2.7-0.7,4.1c0,1.3,0.2,2.7,0.7,3.9c0.5,1.2,1.1,2.3,1.9,3.3
		c0.9,1,1.8,1.6,3.1,2.2c1.2,0.6,2.6,0.8,4.1,0.8c1.5,0,2.8-0.3,3.9-1c1.2-0.6,2.1-1.4,2.9-2.6l3,2.2
		C964.1,795,963.8,795.4,963.3,795.9z M957,603.7c-0.9,1.8-2.1,4.7-2.8,6.8L939.3,661c-1.4,3.9-2.7,9-10.2,9c-6.2,0-12.9-0.5-16-9.9
		l-18.8-59.9c-3.5-11.5-17.3-14.8-17.3-14.8h11.4c11,0,20.7,7.5,23.4,18.1l16.5,56.7c1.5,5.2,2.2,7,4.8,7c3,0,4-3.3,5.1-6.3
		l14.8-50.1c1-2.9,1.2-5.1,1.1-7.1c-0.6-8.5-3.4-13.6-8.8-16.4H973C965.2,590.7,959.5,598.4,957,603.7z M994.6,798.7H979v-26.1h3.6
		v22.8h12V798.7z M1012.5,798.7h-3.6v-26.1h3.6V798.7z M1052.5,798.7h-4.5l-14.5-21.4h-0.1v21.4h-3.6v-26.1h4.6l14.4,21.4h0.1v-21.4
		h3.6L1052.5,798.7L1052.5,798.7z M1054.7,666.5c0,1.4-1.2,2.6-2.6,2.6h-51.6h-14.9c0,0,12.3-6.5,12.3-13.6v-54.7
		c0.1-11-12.3-13.6-12.3-13.6h61.8c1.4,0,2.6,1.2,2.6,2.6v16.8c-1.2-5.1-5-11.3-10-15.4c-2.6-2-5.9-3.1-9.1-3.1h-23.4
		c3.8,1.6,6.5,5.4,6.5,9.9v60.3c0,4.4-2.7,8.2-6.4,9.8h24.9c2.1,0,4.2-0.4,6.1-1.3c7.6-3.7,14.8-11.1,16.1-17.1L1054.7,666.5
		L1054.7,666.5z M1039.1,612.9v25.6c0-5.9-6.4-12.8-13.6-12.8C1032.6,625.7,1039.1,618.7,1039.1,612.9z M1073.4,798.7h-3.6v-26.1
		h3.6V798.7z M1111.7,795.9c-0.5,0.5-1.2,1-1.9,1.5c-0.8,0.5-1.8,1-3,1.3c-1.2,0.4-2.5,0.6-3.9,0.6c-2,0-3.9-0.4-5.6-1.2
		c-1.6-0.8-3.1-1.8-4.2-3.1c-1.2-1.2-2-2.7-2.7-4.3c-0.6-1.6-1-3.3-1-4.9c0-2,0.3-3.8,1-5.6c0.7-1.7,1.6-3.2,2.8-4.4
		c1.2-1.2,2.6-2.2,4.3-2.9c1.6-0.7,3.6-1.1,5.6-1.1c1.7,0,3.5,0.3,5.1,1c1.6,0.7,3,1.7,4,3.1l-3,2.2c-0.8-1-1.6-1.7-2.8-2.2
		c-1.2-0.5-2.3-0.8-3.5-0.8c-1.4,0-2.8,0.3-4,0.9c-1.2,0.6-2.2,1.3-3.1,2.3c-0.9,1-1.5,2.1-2,3.4c-0.5,1.2-0.7,2.7-0.7,4.1
		c0,1.3,0.2,2.7,0.7,3.9c0.5,1.2,1.1,2.3,1.9,3.3c0.9,1,1.8,1.6,3.1,2.2c1.2,0.6,2.6,0.8,4.1,0.8c1.5,0,2.8-0.3,3.9-1
		c1.2-0.6,2.1-1.4,2.9-2.6l3,2.2C1112.4,795,1112.2,795.4,1111.7,795.9z M1109,635.1c-0.4-0.2-0.4-0.6,0-0.8
		c3.4-1.8,15.5-8.9,15.5-23c0-9.2-4-15.4-8.1-19.2c-2.7-2.7-7.6-3.9-11.3-3.9h-11.7c3.8,1.6,6.5,5.4,6.5,9.8v60.3
		c0,6-4.8,10.9-10.9,10.9h-17.6c0,0,12.3-6.5,12.3-13.6v-54.7c0.1-11-12.3-13.6-12.3-13.6h38.4c21.2,0,30.8,10.4,30.8,24.2
		c0,11.2-5.9,19.8-19.7,22.9c-0.4,0.1-0.5,0.7,0,0.8c19,3.5,13.2,34.1,30.2,32.7c0,0-4.5,4.2-13.3,4.2
		C1114.7,671.9,1124.2,644.6,1109,635.1z M1152.9,791.3h-9v-3.1h9V791.3z M1200.9,794.6c-0.5,1-1.2,1.8-1.9,2.5
		c-0.8,0.7-1.7,1.2-2.9,1.6c-1.2,0.4-2.3,0.6-3.6,0.6c-1.6,0-3.3-0.3-4.8-0.9c-1.5-0.6-2.7-1.5-3.6-2.7l2.9-2.5
		c0.7,1,1.4,1.6,2.5,2.1c1,0.5,2,0.7,3.1,0.7c0.6,0,1.2-0.1,1.8-0.3c0.6-0.2,1.2-0.5,1.6-0.9c0.5-0.4,1-0.9,1.2-1.3
		c0.3-0.6,0.5-1.2,0.5-1.9c0-1-0.3-1.7-1-2.3c-0.7-0.6-1.4-1-2.4-1.3c-1-0.4-2-0.7-3.1-1.1c-1.2-0.3-2.1-0.8-3.1-1.3
		s-1.7-1.3-2.4-2.4c-0.7-1-1-2.3-1-4c0-0.8,0.2-1.5,0.5-2.4c0.3-0.9,0.9-1.6,1.5-2.4c0.7-0.7,1.6-1.3,2.8-1.8c1.2-0.5,2.5-0.7,4-0.7
		c1.4,0,2.8,0.2,4.1,0.6s2.4,1.2,3.5,2.4l-2.9,2.6c-0.5-0.7-1.1-1.2-1.9-1.6c-0.8-0.4-1.7-0.7-2.8-0.7c-1,0-1.8,0.1-2.5,0.4
		c-0.7,0.3-1.2,0.6-1.5,1c-0.4,0.4-0.7,0.9-0.9,1.3s-0.2,0.9-0.2,1.2c0,1.2,0.3,1.9,1,2.5c0.7,0.6,1.4,1.1,2.4,1.4
		c1,0.4,2,0.7,3.1,1c1.1,0.3,2.1,0.7,3.1,1.2c1,0.6,1.7,1.2,2.4,2.1c0.7,0.9,1,2.1,1,3.7C1201.7,792.5,1201.4,793.6,1200.9,794.6z
		 M1197.7,588.7c-3,0-3.9,2.9-5.3,6.7l-14.8,50.1c-1,2.9-1.2,5.1-1.1,7.1c0.6,8.5,3.4,13.6,8.8,16.4h-27.7
		c7.9-3.6,13.5-11.2,16-16.6c0.9-1.8,2.1-4.7,2.8-6.8l14.9-50.5c1.4-3.9,2.7-9,10.2-9c6.2,0,12.9,0.5,16,9.9l23.7,78.2
		c5.2,17.4,18.9,22.9,18.9,22.9c0.2,0.1,0.2,0.4-0.1,0.4c-16.3,0-30.6-11.3-35.8-26.4l-22.8-78.4
		C1200.6,588.9,1198.8,588.7,1197.7,588.7z M1234.7,782.3c-0.3,0.9-0.7,1.6-1.3,2.4c-0.7,0.7-1.4,1.2-2.6,1.7
		c-1.1,0.5-2.5,0.7-4.1,0.7h-5.7v11.5h-3.6v-26.1h9.2c1.6,0,3.1,0.2,4.1,0.7c1.1,0.5,1.9,1.1,2.6,1.7c0.7,0.7,1.1,1.4,1.3,2.4
		c0.3,0.9,0.4,1.7,0.4,2.5C1235.1,780.6,1235,781.5,1234.7,782.3z M1266.3,798.7l-2.6-6.4h-12.4l-2.6,6.4h-4.1l11.5-26.1h3.2
		l11.1,26.1H1266.3z"/>
	<polygon class="st0" points="1257.5,777.2 1252.5,789.1 1262.4,789.1 1257.6,777.2 	"/>
	<path class="st0" d="M1253.1,667.9c3.6,0,6.2-2.8,6.2-6.1c0-3.4-2.7-6.1-6.2-6.1s-6.2,2.8-6.2,6.1
		C1246.9,665.3,1249.6,667.9,1253.1,667.9z M1250.4,658h2.8c1.9,0,3,0.9,3,2.5c0,1.2-0.6,2-1.6,2.4l1.7,2.5h-1.1l-1.5-2.4
		c-0.2,0-0.3,0-0.5,0h-1.9v2.3h-0.9L1250.4,658L1250.4,658z"/>
</g>
</svg>
