<svg xmlns="http://www.w3.org/2000/svg" width="237.758" height="41.457" viewBox="0 0 237.758 41.457">
  <g id="Grupo_61" data-name="Grupo 61" transform="translate(-289 -319.995)">
    <g id="Grupo_60" data-name="Grupo 60">
      <g id="Componente_22_141" data-name="Componente 22 – 141" transform="translate(337.586 319.995)">
        <path id="Trazado_52" data-name="Trazado 52" d="M3850.684,1804.545l-6.7-12.322a.255.255,0,0,0-.446,0l-6.484,12.171-13.73,2.551a.287.287,0,0,0-.179.481l9.541,9.9-1.8,13.753a.323.323,0,0,0,.478.374l12.268-5.971,12.668,6.035a.269.269,0,0,0,.374-.273l-1.909-13.664,9.561-10.085c.223-.208.183-.5-.118-.554Z" transform="translate(-3822.06 -1791.088)" fill="#fae8ea" fill-rule="evenodd"/>
        <g id="Grupo_56" data-name="Grupo 56" transform="translate(0 0)">
          <g id="Grupo_55" data-name="Grupo 55" transform="translate(0 0)">
            <path id="Trazado_53" data-name="Trazado 53" d="M3847.4,1823.551a1.243,1.243,0,0,1-.537-.121l-12.23-5.826-11.832,5.759a1.326,1.326,0,0,1-1.912-1.435l1.737-13.246-9.2-9.546a1.28,1.28,0,0,1-.293-1.3,1.3,1.3,0,0,1,1.024-.866l3.237-.6a1.006,1.006,0,1,1,.368,1.979l-1.955.364,8.609,8.929a1.007,1.007,0,0,1,.273.829l-1.646,12.546,11.149-5.427a1.007,1.007,0,0,1,.873,0l11.422,5.441-1.718-12.3a1.006,1.006,0,0,1,.266-.832l8.708-9.184-12.23-2.167a1.007,1.007,0,0,1-.708-.51l-6.029-11.091-5.826,10.937a1.007,1.007,0,0,1-.7.516l-3.316.616a1.006,1.006,0,0,1-.368-1.979l2.84-.528,6.256-11.744a1.257,1.257,0,0,1,1.106-.666h.006a1.257,1.257,0,0,1,1.106.655l6.467,11.9,13.043,2.311a1.3,1.3,0,0,1,1.039.9,1.36,1.36,0,0,1-.382,1.355l-9.212,9.717,1.842,13.184a1.26,1.26,0,0,1-.507,1.191A1.287,1.287,0,0,1,3847.4,1823.551Zm-24.531-1.265h0Z" transform="translate(-3813.065 -1782.094)" fill="#dbb5bc"/>
          </g>
          <path id="Trazado_54" data-name="Trazado 54" d="M3884.925,1919.067a1.006,1.006,0,0,0,0-2.012h0A1.006,1.006,0,0,0,3884.925,1919.067Z" transform="translate(-3876.793 -1903.475)" fill="#dbb5bc"/>
        </g>
      </g>
      <g id="Componente_22_142" data-name="Componente 22 – 142" transform="translate(386.172 319.995)">
        <path id="Trazado_52-2" data-name="Trazado 52" d="M3850.684,1804.545l-6.7-12.322a.255.255,0,0,0-.446,0l-6.484,12.171-13.73,2.551a.287.287,0,0,0-.179.481l9.541,9.9-1.8,13.753a.323.323,0,0,0,.478.374l12.268-5.971,12.668,6.035a.269.269,0,0,0,.374-.273l-1.909-13.664,9.561-10.085c.223-.208.183-.5-.118-.554Z" transform="translate(-3822.06 -1791.088)" fill="#fae8ea" fill-rule="evenodd"/>
        <g id="Grupo_56-2" data-name="Grupo 56" transform="translate(0 0)">
          <g id="Grupo_55-2" data-name="Grupo 55" transform="translate(0 0)">
            <path id="Trazado_53-2" data-name="Trazado 53" d="M3847.4,1823.551a1.243,1.243,0,0,1-.537-.121l-12.23-5.826-11.832,5.759a1.326,1.326,0,0,1-1.912-1.435l1.737-13.246-9.2-9.546a1.28,1.28,0,0,1-.293-1.3,1.3,1.3,0,0,1,1.024-.866l3.237-.6a1.006,1.006,0,1,1,.368,1.979l-1.955.364,8.609,8.929a1.007,1.007,0,0,1,.273.829l-1.646,12.546,11.149-5.427a1.007,1.007,0,0,1,.873,0l11.422,5.441-1.718-12.3a1.006,1.006,0,0,1,.266-.832l8.708-9.184-12.23-2.167a1.007,1.007,0,0,1-.708-.51l-6.029-11.091-5.826,10.937a1.007,1.007,0,0,1-.7.516l-3.316.616a1.006,1.006,0,0,1-.368-1.979l2.84-.528,6.256-11.744a1.257,1.257,0,0,1,1.106-.666h.006a1.257,1.257,0,0,1,1.106.655l6.467,11.9,13.043,2.311a1.3,1.3,0,0,1,1.039.9,1.36,1.36,0,0,1-.382,1.355l-9.212,9.717,1.842,13.184a1.26,1.26,0,0,1-.507,1.191A1.287,1.287,0,0,1,3847.4,1823.551Zm-24.531-1.265h0Z" transform="translate(-3813.065 -1782.094)" fill="#dbb5bc"/>
          </g>
          <path id="Trazado_54-2" data-name="Trazado 54" d="M3884.925,1919.067a1.006,1.006,0,0,0,0-2.012h0A1.006,1.006,0,0,0,3884.925,1919.067Z" transform="translate(-3876.793 -1903.475)" fill="#dbb5bc"/>
        </g>
      </g>
      <g id="Componente_22_143" data-name="Componente 22 – 143" transform="translate(434.758 319.995)">
        <path id="Trazado_52-3" data-name="Trazado 52" d="M3850.686,1804.411l-6.7-12.188a.256.256,0,0,0-.446,0l-6.485,12.04-13.732,2.524a.283.283,0,0,0-.179.476l9.542,9.788-1.8,13.6a.322.322,0,0,0,.478.37l12.269-5.907,12.669,5.97a.269.269,0,0,0,.374-.27l-1.909-13.516,9.562-9.976c.223-.206.183-.5-.118-.548Z" transform="translate(-3822.06 -1791.099)" fill="#f2f2f2" fill-rule="evenodd"/>
        <g id="Grupo_56-3" data-name="Grupo 56">
          <g id="Grupo_55-3" data-name="Grupo 55">
            <path id="Trazado_53-3" data-name="Trazado 53" d="M3847.407,1823.1a1.254,1.254,0,0,1-.537-.12l-12.232-5.764-11.833,5.7a1.354,1.354,0,0,1-1.421-.124,1.329,1.329,0,0,1-.491-1.3l1.737-13.1-9.2-9.443a1.257,1.257,0,0,1-.293-1.291,1.3,1.3,0,0,1,1.024-.857l3.237-.6a1.007,1.007,0,0,1,1.173.8,1,1,0,0,1-.806,1.16l-1.955.36,8.609,8.832a.989.989,0,0,1,.273.82l-1.646,12.41,11.15-5.368a1.017,1.017,0,0,1,.873,0l11.423,5.382-1.718-12.162a.988.988,0,0,1,.266-.823l8.708-9.085-12.231-2.143a1.007,1.007,0,0,1-.708-.5l-6.03-10.971-5.827,10.818a1.006,1.006,0,0,1-.7.511l-3.317.609a1.006,1.006,0,0,1-1.173-.8,1,1,0,0,1,.805-1.161l2.84-.522,6.257-11.617a1.259,1.259,0,0,1,1.106-.659h.006a1.259,1.259,0,0,1,1.106.648l6.468,11.767,13.044,2.286a1.3,1.3,0,0,1,1.039.889,1.335,1.335,0,0,1-.382,1.34l-9.213,9.612,1.842,13.041a1.24,1.24,0,0,1-.507,1.178A1.3,1.3,0,0,1,3847.407,1823.1Zm-24.534-1.251h0Z" transform="translate(-3813.065 -1782.094)" fill="#e5e5e5"/>
          </g>
          <path id="Trazado_54-3" data-name="Trazado 54" d="M3884.925,1919.046a1,1,0,1,0,0-1.991h0A1,1,0,1,0,3884.925,1919.046Z" transform="translate(-3876.793 -1903.622)" fill="#e5e5e5"/>
        </g>
      </g>
      <g id="Componente_22_144" data-name="Componente 22 – 144" transform="translate(483.344 319.995)">
        <path id="Trazado_52-4" data-name="Trazado 52" d="M3850.686,1804.411l-6.7-12.188a.256.256,0,0,0-.446,0l-6.485,12.04-13.732,2.524a.283.283,0,0,0-.179.476l9.542,9.788-1.8,13.6a.322.322,0,0,0,.478.37l12.269-5.907,12.669,5.97a.269.269,0,0,0,.374-.27l-1.909-13.516,9.562-9.976c.223-.206.183-.5-.118-.548Z" transform="translate(-3822.06 -1791.099)" fill="#f2f2f2" fill-rule="evenodd"/>
        <g id="Grupo_56-4" data-name="Grupo 56">
          <g id="Grupo_55-4" data-name="Grupo 55">
            <path id="Trazado_53-4" data-name="Trazado 53" d="M3847.407,1823.1a1.254,1.254,0,0,1-.537-.12l-12.232-5.764-11.833,5.7a1.354,1.354,0,0,1-1.421-.124,1.329,1.329,0,0,1-.491-1.3l1.737-13.1-9.2-9.443a1.257,1.257,0,0,1-.293-1.291,1.3,1.3,0,0,1,1.024-.857l3.237-.6a1.007,1.007,0,0,1,1.173.8,1,1,0,0,1-.806,1.16l-1.955.36,8.609,8.832a.989.989,0,0,1,.273.82l-1.646,12.41,11.15-5.368a1.017,1.017,0,0,1,.873,0l11.423,5.382-1.718-12.162a.988.988,0,0,1,.266-.823l8.708-9.085-12.231-2.143a1.007,1.007,0,0,1-.708-.5l-6.03-10.971-5.827,10.818a1.006,1.006,0,0,1-.7.511l-3.317.609a1.006,1.006,0,0,1-1.173-.8,1,1,0,0,1,.805-1.161l2.84-.522,6.257-11.617a1.259,1.259,0,0,1,1.106-.659h.006a1.259,1.259,0,0,1,1.106.648l6.468,11.767,13.044,2.286a1.3,1.3,0,0,1,1.039.889,1.335,1.335,0,0,1-.382,1.34l-9.213,9.612,1.842,13.041a1.24,1.24,0,0,1-.507,1.178A1.3,1.3,0,0,1,3847.407,1823.1Zm-24.534-1.251h0Z" transform="translate(-3813.065 -1782.094)" fill="#e5e5e5"/>
          </g>
          <path id="Trazado_54-4" data-name="Trazado 54" d="M3884.925,1919.046a1,1,0,1,0,0-1.991h0A1,1,0,1,0,3884.925,1919.046Z" transform="translate(-3876.793 -1903.622)" fill="#e5e5e5"/>
        </g>
      </g>
      <g id="Componente_22_145" data-name="Componente 22 – 145" transform="translate(289 319.995)">
        <path id="Trazado_52-5" data-name="Trazado 52" d="M3850.684,1804.545l-6.7-12.322a.255.255,0,0,0-.446,0l-6.484,12.171-13.73,2.551a.287.287,0,0,0-.179.481l9.541,9.9-1.8,13.753a.323.323,0,0,0,.478.374l12.268-5.971,12.668,6.035a.269.269,0,0,0,.374-.273l-1.909-13.664,9.561-10.085c.223-.208.183-.5-.118-.554Z" transform="translate(-3822.06 -1791.088)" fill="#fae8ea" fill-rule="evenodd"/>
        <g id="Grupo_56-5" data-name="Grupo 56" transform="translate(0 0)">
          <g id="Grupo_55-5" data-name="Grupo 55" transform="translate(0 0)">
            <path id="Trazado_53-5" data-name="Trazado 53" d="M3847.4,1823.551a1.243,1.243,0,0,1-.537-.121l-12.23-5.826-11.832,5.759a1.326,1.326,0,0,1-1.912-1.435l1.737-13.246-9.2-9.546a1.28,1.28,0,0,1-.293-1.3,1.3,1.3,0,0,1,1.024-.866l3.237-.6a1.006,1.006,0,1,1,.368,1.979l-1.955.364,8.609,8.929a1.007,1.007,0,0,1,.273.829l-1.646,12.546,11.149-5.427a1.007,1.007,0,0,1,.873,0l11.422,5.441-1.718-12.3a1.006,1.006,0,0,1,.266-.832l8.708-9.184-12.23-2.167a1.007,1.007,0,0,1-.708-.51l-6.029-11.091-5.826,10.937a1.007,1.007,0,0,1-.7.516l-3.316.616a1.006,1.006,0,0,1-.368-1.979l2.84-.528,6.256-11.744a1.257,1.257,0,0,1,1.106-.666h.006a1.257,1.257,0,0,1,1.106.655l6.467,11.9,13.043,2.311a1.3,1.3,0,0,1,1.039.9,1.36,1.36,0,0,1-.382,1.355l-9.212,9.717,1.842,13.184a1.26,1.26,0,0,1-.507,1.191A1.287,1.287,0,0,1,3847.4,1823.551Zm-24.531-1.265h0Z" transform="translate(-3813.065 -1782.094)" fill="#dbb5bc"/>
          </g>
          <path id="Trazado_54-5" data-name="Trazado 54" d="M3884.925,1919.067a1.006,1.006,0,0,0,0-2.012h0A1.006,1.006,0,0,0,3884.925,1919.067Z" transform="translate(-3876.793 -1903.475)" fill="#dbb5bc"/>
        </g>
      </g>
    </g>
  </g>
</svg>
