<?xml version="1.0" encoding="utf-8"?>
<!-- Generator: Adobe Illustrator 25.4.1, SVG Export Plug-In . SVG Version: 6.00 Build 0)  -->
<svg version="1.1" id="Capa_1" xmlns="http://www.w3.org/2000/svg" xmlns:xlink="http://www.w3.org/1999/xlink" x="0px" y="0px"
	 viewBox="0 0 30 30" style="enable-background:new 0 0 30 30;" xml:space="preserve">
<style type="text/css">
	.st0{opacity:0.649;}
	.st1{fill:#707070;}
	.st2{fill-rule:evenodd;clip-rule:evenodd;fill:#FEFEFE;}
</style>
<g id="Grupo_331" transform="translate(0 -0.214)" class="st0">
	<circle id="Elipse_22" class="st1" cx="15" cy="15.2" r="15"/>
	<g id="Grupo_329" transform="translate(6.899 6.905)">
		<path id="Trazado_238" class="st2" d="M8.2,14.5c-1.3,0-2.6-0.4-3.7-1.1L2,14.2l0.8-2.5C2,10.6,1.6,9.3,1.6,7.9c0-0.2,0-0.4,0-0.6
			c0.4-3.7,3.7-6.3,7.3-6c3.2,0.3,5.7,2.9,6,6.1c0,0.2,0,0.4,0,0.5C14.9,11.6,11.9,14.5,8.2,14.5L8.2,14.5z M11.9,9.5
			c-0.2-0.1-1.2-0.6-1.3-0.6S10.3,8.7,10.1,9C9.9,9.2,9.7,9.5,9.5,9.7C9.4,9.8,9.3,9.8,9.1,9.8C8.5,9.5,8,9.2,7.5,8.8
			C7.1,8.4,6.7,8,6.4,7.5c-0.1-0.2,0-0.3,0.1-0.4c0.1-0.1,0.2-0.2,0.3-0.3c0,0,0-0.1,0.1-0.1C6.9,6.6,7,6.5,7,6.4
			c0.1-0.1,0.1-0.2,0-0.3C6.9,6,6.6,5,6.4,4.6S6.1,4.3,6,4.3s-0.2,0-0.4,0c-0.2,0-0.4,0.1-0.5,0.2C4.4,5.1,4.2,6,4.5,6.8
			c0.1,0.5,0.4,0.9,0.7,1.3c0.8,1.3,2,2.3,3.3,2.9c2,0.8,2,0.5,2.3,0.5c0.6-0.1,1-0.4,1.3-0.9c0.1-0.3,0.2-0.6,0.1-0.9
			C12.2,9.6,12.1,9.6,11.9,9.5L11.9,9.5z M16.2,7.7C16,3.3,12.4-0.1,8,0C3.9,0.2,0.5,3.4,0.3,7.5c0,0.1,0,0.2,0,0.3
			c0,1.4,0.4,2.9,1.1,4.1L0,16.2l4.4-1.4c3.9,2.1,8.7,0.7,10.8-3.2c0.6-1.1,1-2.4,1-3.7C16.2,7.8,16.2,7.8,16.2,7.7L16.2,7.7z"/>
	</g>
</g>
</svg>
