<?xml version="1.0" encoding="utf-8"?>
<!-- Generator: Adobe Illustrator 25.3.1, SVG Export Plug-In . SVG Version: 6.00 Build 0)  -->
<svg version="1.1" id="Capa_1" xmlns="http://www.w3.org/2000/svg" xmlns:xlink="http://www.w3.org/1999/xlink" x="0px" y="0px"
	 viewBox="0 0 45.3 45.3" style="enable-background:new 0 0 45.3 45.3;" xml:space="preserve">
<style type="text/css">
	.st0{fill-rule:evenodd;clip-rule:evenodd;fill:#3C3C3C;}
</style>
<g id="Grupo_167" transform="translate(-587.387 -539.178)">
	<path id="Trazado_239" class="st0" d="M610.4,579.8c-3.7,0-7.2-1.1-10.3-3.1L593,579l2.3-6.9c-2.3-3.2-3.6-7-3.6-10.9
		c0-0.6,0-1.2,0.1-1.8c1.1-10.3,10.3-17.7,20.6-16.6c8.9,0.9,15.9,8.1,16.7,17c0,0.5,0,1,0,1.4C629.1,571.5,620.7,579.8,610.4,579.8
		L610.4,579.8z M620.6,565.7c-0.6-0.3-3.2-1.6-3.7-1.8c-0.5-0.2-0.9-0.3-1.3,0.3c-0.5,0.7-1.1,1.4-1.7,2.1c-0.3,0.4-0.6,0.4-1.2,0.2
		c-1.6-0.6-3.1-1.5-4.4-2.7c-1.2-1.1-2.2-2.3-3-3.7c-0.3-0.6,0-0.8,0.2-1.1c0.3-0.3,0.6-0.6,0.8-0.9c0.1-0.1,0.1-0.1,0.2-0.2
		c0.1-0.2,0.2-0.4,0.3-0.6c0.2-0.3,0.1-0.7,0-0.9c-0.1-0.3-1.2-3-1.7-4c-0.5-1.1-0.9-0.9-1.2-0.9c-0.3,0-0.7,0-1.1,0
		c-0.6,0-1.1,0.3-1.4,0.7c-1.7,1.6-2.4,4.1-1.6,6.3c0.4,1.4,1.1,2.6,1.9,3.8c0.3,0.4,3.8,6,9.3,8.2c5.6,2.2,5.6,1.4,6.6,1.4
		s3.2-1.3,3.7-2.6c0.4-0.8,0.5-1.7,0.3-2.6C621.5,566.1,621.2,565.9,620.6,565.7L620.6,565.7z M632.6,560.7
		c-0.4-12.3-10.7-21.9-22.9-21.5c-11.6,0.4-20.9,9.5-21.5,21.1c0,0.3,0,0.6,0,0.9c0,4,1.1,8,3.2,11.4l-4,11.8l12.3-3.9
		c10.8,5.9,24.3,1.9,30.2-8.9c1.8-3.2,2.7-6.8,2.7-10.5C632.7,561,632.6,560.9,632.6,560.7L632.6,560.7z"/>
</g>
</svg>
